Hubballi-Regular-20-LatinOnly-Decomp-105.ufo
<glyph name="equal" format="1">
  <advance width="527"/>
  <unicode hex="003D"/>
  <outline>
    <contour>
      <point x="86" y="382" type="curve" smooth="yes"/>
      <point x="440" y="382" type="line" smooth="yes"/>
      <point x="451" y="382"/>
      <point x="460" y="373"/>
      <point x="460" y="362" type="curve" smooth="yes"/>
      <point x="460" y="351"/>
      <point x="451" y="342"/>
      <point x="440" y="342" type="curve" smooth="yes"/>
      <point x="86" y="342" type="line" smooth="yes"/>
      <point x="75" y="342"/>
      <point x="66" y="351"/>
      <point x="66" y="362" type="curve" smooth="yes"/>
      <point x="66" y="373"/>
      <point x="75" y="382"/>
    </contour>
    <contour>
      <point x="86" y="174" type="curve" smooth="yes"/>
      <point x="440" y="174" type="line" smooth="yes"/>
      <point x="451" y="174"/>
      <point x="460" y="165"/>
      <point x="460" y="154" type="curve" smooth="yes"/>
      <point x="460" y="143"/>
      <point x="451" y="134"/>
      <point x="440" y="134" type="curve" smooth="yes"/>
      <point x="86" y="134" type="line" smooth="yes"/>
      <point x="75" y="134"/>
      <point x="66" y="143"/>
      <point x="66" y="154" type="curve" smooth="yes"/>
      <point x="66" y="165"/>
      <point x="75" y="174"/>
    </contour>
  </outline>
</glyph>
<glyph name="L" format="1">
  <advance width="452"/>
  <unicode hex="004C"/>
  <outline>
    <contour>
      <point x="134" y="520" type="curve" smooth="yes"/>
      <point x="134" y="11" type="line" smooth="yes"/>
      <point x="134" y="0"/>
      <point x="125" y="-9"/>
      <point x="114" y="-9" type="curve" smooth="yes"/>
      <point x="103" y="-9"/>
      <point x="94" y="0"/>
      <point x="94" y="11" type="curve" smooth="yes"/>
      <point x="94" y="520" type="line" smooth="yes"/>
      <point x="94" y="531"/>
      <point x="103" y="540"/>
      <point x="114" y="540" type="curve" smooth="yes"/>
      <point x="125" y="540"/>
      <point x="134" y="531"/>
    </contour>
    <contour>
      <point x="123" y="31" type="curve" smooth="yes"/>
      <point x="399" y="31" type="line" smooth="yes"/>
      <point x="410" y="31"/>
      <point x="419" y="22"/>
      <point x="419" y="11" type="curve" smooth="yes"/>
      <point x="419" y="0"/>
      <point x="410" y="-9"/>
      <point x="399" y="-9" type="curve" smooth="yes"/>
      <point x="123" y="-9" type="line" smooth="yes"/>
      <point x="112" y="-9"/>
      <point x="103" y="0"/>
      <point x="103" y="11" type="curve" smooth="yes"/>
      <point x="103" y="22"/>
      <point x="112" y="31"/>
    </contour>
  </outline>
</glyph>
<glyph name="M" format="1">
  <advance width="831"/>
  <unicode hex="004D"/>
  <outline>
    <contour>
      <point x="187" y="526" type="curve" smooth="yes"/>
      <point x="161" y="376"/>
      <point x="128" y="128"/>
      <point x="115" y="7" type="curve" smooth="yes"/>
      <point x="114" y="-4"/>
      <point x="104" y="-12"/>
      <point x="93" y="-11" type="curve" smooth="yes"/>
      <point x="82" y="-10"/>
      <point x="74" y="0"/>
      <point x="75" y="11" type="curve" smooth="yes"/>
      <point x="88" y="132"/>
      <point x="121" y="382"/>
      <point x="147" y="532" type="curve" smooth="yes"/>
      <point x="149" y="543"/>
      <point x="160" y="551"/>
      <point x="170" y="549" type="curve" smooth="yes"/>
      <point x="181" y="547"/>
      <point x="189" y="536"/>
    </contour>
    <contour>
      <point x="669" y="534" type="curve" smooth="yes"/>
      <point x="701" y="370"/>
      <point x="736" y="152"/>
      <point x="755" y="12" type="curve" smooth="yes"/>
      <point x="756" y="1"/>
      <point x="748" y="-9"/>
      <point x="738" y="-11" type="curve" smooth="yes"/>
      <point x="727" y="-12"/>
      <point x="717" y="-4"/>
      <point x="715" y="6" type="curve" smooth="yes"/>
      <point x="696" y="146"/>
      <point x="661" y="364"/>
      <point x="629" y="526" type="curve" smooth="yes"/>
      <point x="627" y="537"/>
      <point x="635" y="548"/>
      <point x="645" y="550" type="curve" smooth="yes"/>
      <point x="656" y="552"/>
      <point x="667" y="544"/>
    </contour>
    <contour>
      <point x="197" y="525" type="curve" smooth="yes"/>
      <point x="262" y="391"/>
      <point x="361" y="185"/>
      <point x="431" y="38" type="curve" smooth="yes"/>
      <point x="436" y="28"/>
      <point x="431" y="16"/>
      <point x="422" y="11" type="curve" smooth="yes"/>
      <point x="412" y="6"/>
      <point x="400" y="11"/>
      <point x="395" y="20" type="curve" smooth="yes"/>
      <point x="325" y="167"/>
      <point x="226" y="373"/>
      <point x="161" y="507" type="curve" smooth="yes"/>
      <point x="156" y="517"/>
      <point x="161" y="529"/>
      <point x="170" y="534" type="curve" smooth="yes"/>
      <point x="180" y="539"/>
      <point x="192" y="534"/>
    </contour>
    <contour>
      <point x="399" y="49" type="curve" smooth="yes"/>
      <point x="462" y="192"/>
      <point x="546" y="378"/>
      <point x="623" y="531" type="curve" smooth="yes"/>
      <point x="628" y="541"/>
      <point x="640" y="545"/>
      <point x="650" y="540" type="curve" smooth="yes"/>
      <point x="660" y="535"/>
      <point x="664" y="523"/>
      <point x="659" y="513" type="curve" smooth="yes"/>
      <point x="582" y="360"/>
      <point x="498" y="176"/>
      <point x="435" y="33" type="curve" smooth="yes"/>
      <point x="431" y="23"/>
      <point x="419" y="18"/>
      <point x="409" y="23" type="curve" smooth="yes"/>
      <point x="399" y="27"/>
      <point x="394" y="39"/>
    </contour>
  </outline>
</glyph>
<glyph name="O" format="1">
  <advance width="642"/>
  <unicode hex="004F"/>
  <outline>
    <contour>
      <point x="323" y="550" type="curve" smooth="yes"/>
      <point x="469" y="550"/>
      <point x="587" y="433"/>
      <point x="587" y="265" type="curve" smooth="yes"/>
      <point x="587" y="105"/>
      <point x="489" y="-19"/>
      <point x="323" y="-19" type="curve" smooth="yes"/>
      <point x="166" y="-19"/>
      <point x="55" y="105"/>
      <point x="55" y="262" type="curve" smooth="yes"/>
      <point x="55" y="433"/>
      <point x="164" y="550"/>
    </contour>
    <contour>
      <point x="323" y="510" type="curve" smooth="yes"/>
      <point x="186" y="510"/>
      <point x="95" y="407"/>
      <point x="95" y="262" type="curve" smooth="yes"/>
      <point x="95" y="129"/>
      <point x="188" y="21"/>
      <point x="323" y="21" type="curve" smooth="yes"/>
      <point x="465" y="21"/>
      <point x="547" y="129"/>
      <point x="547" y="265" type="curve" smooth="yes"/>
      <point x="547" y="407"/>
      <point x="449" y="510"/>
    </contour>
  </outline>
</glyph>
<glyph name="X" format="1">
  <advance width="561"/>
  <unicode hex="0058"/>
  <outline>
    <contour>
      <point x="104" y="531" type="curve" smooth="yes"/>
      <point x="205" y="384"/>
      <point x="442" y="110"/>
      <point x="504" y="23" type="curve" smooth="yes"/>
      <point x="511" y="14"/>
      <point x="508" y="1"/>
      <point x="500" y="-5" type="curve" smooth="yes"/>
      <point x="491" y="-12"/>
      <point x="478" y="-9"/>
      <point x="472" y="-1" type="curve" smooth="yes"/>
      <point x="410" y="88"/>
      <point x="173" y="362"/>
      <point x="72" y="509" type="curve" smooth="yes"/>
      <point x="65" y="518"/>
      <point x="68" y="530"/>
      <point x="77" y="536" type="curve" smooth="yes"/>
      <point x="86" y="543"/>
      <point x="98" y="540"/>
    </contour>
    <contour>
      <point x="58" y="23" type="curve" smooth="yes"/>
      <point x="141" y="135"/>
      <point x="360" y="391"/>
      <point x="450" y="531" type="curve" smooth="yes"/>
      <point x="456" y="540"/>
      <point x="469" y="543"/>
      <point x="478" y="537" type="curve" smooth="yes"/>
      <point x="487" y="531"/>
      <point x="490" y="518"/>
      <point x="484" y="509" type="curve" smooth="yes"/>
      <point x="394" y="369"/>
      <point x="173" y="111"/>
      <point x="90" y="-1" type="curve" smooth="yes"/>
      <point x="84" y="-10"/>
      <point x="71" y="-11"/>
      <point x="62" y="-5" type="curve" smooth="yes"/>
      <point x="53" y="1"/>
      <point x="52" y="14"/>
    </contour>
  </outline>
</glyph>
<glyph name="bracketleft" format="1">
  <advance width="322"/>
  <unicode hex="005B"/>
  <outline>
    <contour>
      <point x="230" y="600" type="curve" smooth="yes"/>
      <point x="88" y="600" type="line"/>
      <point x="108" y="620" type="line"/>
      <point x="108" y="-93" type="line"/>
      <point x="88" y="-73" type="line"/>
      <point x="230" y="-73" type="line" smooth="yes"/>
      <point x="241" y="-73"/>
      <point x="250" y="-82"/>
      <point x="250" y="-93" type="curve" smooth="yes"/>
      <point x="250" y="-104"/>
      <point x="241" y="-113"/>
      <point x="230" y="-113" type="curve" smooth="yes"/>
      <point x="88" y="-113" type="line" smooth="yes"/>
      <point x="77" y="-113"/>
      <point x="68" y="-104"/>
      <point x="68" y="-93" type="curve" smooth="yes"/>
      <point x="68" y="620" type="line" smooth="yes"/>
      <point x="68" y="631"/>
      <point x="77" y="640"/>
      <point x="88" y="640" type="curve" smooth="yes"/>
      <point x="230" y="640" type="line" smooth="yes"/>
      <point x="241" y="640"/>
      <point x="250" y="631"/>
      <point x="250" y="620" type="curve" smooth="yes"/>
      <point x="250" y="609"/>
      <point x="241" y="600"/>
    </contour>
  </outline>
</glyph>
<glyph name="t" format="1">
  <advance width="342"/>
  <unicode hex="0074"/>
  <outline>
    <contour>
      <point x="146" y="503" type="curve" smooth="yes"/>
      <point x="146" y="134" type="line" smooth="yes"/>
      <point x="146" y="66"/>
      <point x="190" y="33"/>
      <point x="278" y="31" type="curve" smooth="yes"/>
      <point x="289" y="31"/>
      <point x="298" y="21"/>
      <point x="298" y="11" type="curve" smooth="yes"/>
      <point x="298" y="0"/>
      <point x="288" y="-9"/>
      <point x="278" y="-9" type="curve" smooth="yes"/>
      <point x="154" y="-7"/>
      <point x="106" y="46"/>
      <point x="106" y="134" type="curve" smooth="yes"/>
      <point x="106" y="503" type="line" smooth="yes"/>
      <point x="106" y="514"/>
      <point x="115" y="523"/>
      <point x="126" y="523" type="curve" smooth="yes"/>
      <point x="137" y="523"/>
      <point x="146" y="514"/>
    </contour>
    <contour>
      <point x="33" y="390" type="curve" smooth="yes"/>
      <point x="292" y="390" type="line" smooth="yes"/>
      <point x="303" y="390"/>
      <point x="312" y="381"/>
      <point x="312" y="370" type="curve" smooth="yes"/>
      <point x="312" y="359"/>
      <point x="303" y="350"/>
      <point x="292" y="350" type="curve" smooth="yes"/>
      <point x="33" y="350" type="line" smooth="yes"/>
      <point x="22" y="350"/>
      <point x="13" y="359"/>
      <point x="13" y="370" type="curve" smooth="yes"/>
      <point x="13" y="381"/>
      <point x="22" y="390"/>
    </contour>
  </outline>
</glyph>
<glyph name="currency" format="1">
  <advance width="517"/>
  <unicode hex="00A4"/>
  <outline>
    <contour>
      <point x="258" y="414" type="curve" smooth="yes"/>
      <point x="372" y="414"/>
      <point x="444" y="327"/>
      <point x="444" y="222" type="curve" smooth="yes"/>
      <point x="444" y="120"/>
      <point x="371" y="40"/>
      <point x="258" y="40" type="curve" smooth="yes"/>
      <point x="145" y="40"/>
      <point x="72" y="121"/>
      <point x="72" y="224" type="curve" smooth="yes"/>
      <point x="72" y="327"/>
      <point x="143" y="414"/>
    </contour>
    <contour>
      <point x="258" y="374" type="curve" smooth="yes"/>
      <point x="167" y="374"/>
      <point x="112" y="305"/>
      <point x="112" y="224" type="curve" smooth="yes"/>
      <point x="112" y="143"/>
      <point x="169" y="80"/>
      <point x="258" y="80" type="curve" smooth="yes"/>
      <point x="347" y="80"/>
      <point x="404" y="142"/>
      <point x="404" y="222" type="curve" smooth="yes"/>
      <point x="404" y="305"/>
      <point x="348" y="374"/>
    </contour>
    <contour>
      <point x="436" y="1" type="curve" smooth="yes"/>
      <point x="362" y="83" type="line" smooth="yes"/>
      <point x="355" y="91"/>
      <point x="356" y="104"/>
      <point x="364" y="111" type="curve" smooth="yes"/>
      <point x="372" y="118"/>
      <point x="385" y="117"/>
      <point x="392" y="109" type="curve" smooth="yes"/>
      <point x="466" y="27" type="line" smooth="yes"/>
      <point x="473" y="19"/>
      <point x="472" y="6"/>
      <point x="464" y="-1" type="curve" smooth="yes"/>
      <point x="456" y="-8"/>
      <point x="443" y="-7"/>
    </contour>
    <contour>
      <point x="124" y="342" type="curve" smooth="yes"/>
      <point x="56" y="417" type="line" smooth="yes"/>
      <point x="49" y="425"/>
      <point x="50" y="438"/>
      <point x="58" y="445" type="curve" smooth="yes"/>
      <point x="66" y="452"/>
      <point x="79" y="451"/>
      <point x="86" y="443" type="curve" smooth="yes"/>
      <point x="154" y="368" type="line" smooth="yes"/>
      <point x="161" y="360"/>
      <point x="160" y="347"/>
      <point x="152" y="340" type="curve" smooth="yes"/>
      <point x="144" y="333"/>
      <point x="131" y="334"/>
    </contour>
    <contour>
      <point x="362" y="369" type="curve" smooth="yes"/>
      <point x="430" y="445" type="line" smooth="yes"/>
      <point x="437" y="453"/>
      <point x="450" y="454"/>
      <point x="458" y="447" type="curve" smooth="yes"/>
      <point x="466" y="440"/>
      <point x="467" y="427"/>
      <point x="460" y="419" type="curve" smooth="yes"/>
      <point x="392" y="343" type="line" smooth="yes"/>
      <point x="385" y="335"/>
      <point x="372" y="334"/>
      <point x="364" y="341" type="curve" smooth="yes"/>
      <point x="356" y="348"/>
      <point x="355" y="361"/>
    </contour>
    <contour>
      <point x="51" y="27" type="curve" smooth="yes"/>
      <point x="122" y="106" type="line" smooth="yes"/>
      <point x="129" y="114"/>
      <point x="142" y="115"/>
      <point x="150" y="108" type="curve" smooth="yes"/>
      <point x="158" y="101"/>
      <point x="159" y="88"/>
      <point x="152" y="80" type="curve" smooth="yes"/>
      <point x="81" y="1" type="line" smooth="yes"/>
      <point x="74" y="-7"/>
      <point x="61" y="-8"/>
      <point x="53" y="-1" type="curve" smooth="yes"/>
      <point x="45" y="6"/>
      <point x="44" y="19"/>
    </contour>
  </outline>
</glyph>
<glyph name="yen" format="1">
  <advance width="558"/>
  <unicode hex="00A5"/>
  <outline>
    <contour>
      <point x="307" y="265" type="curve" smooth="yes"/>
      <point x="307" y="11" type="line" smooth="yes"/>
      <point x="307" y="0"/>
      <point x="298" y="-9"/>
      <point x="287" y="-9" type="curve" smooth="yes"/>
      <point x="276" y="-9"/>
      <point x="267" y="0"/>
      <point x="267" y="11" type="curve" smooth="yes"/>
      <point x="267" y="265" type="line" smooth="yes"/>
      <point x="267" y="276"/>
      <point x="276" y="285"/>
      <point x="287" y="285" type="curve" smooth="yes"/>
      <point x="298" y="285"/>
      <point x="307" y="276"/>
    </contour>
    <contour>
      <point x="99" y="531" type="curve" smooth="yes"/>
      <point x="150" y="459"/>
      <point x="258" y="335"/>
      <point x="298" y="296" type="curve" smooth="yes"/>
      <point x="306" y="289"/>
      <point x="306" y="276"/>
      <point x="298" y="268" type="curve" smooth="yes"/>
      <point x="291" y="260"/>
      <point x="278" y="260"/>
      <point x="270" y="268" type="curve" smooth="yes"/>
      <point x="230" y="307"/>
      <point x="118" y="435"/>
      <point x="67" y="509" type="curve" smooth="yes"/>
      <point x="60" y="517"/>
      <point x="63" y="530"/>
      <point x="72" y="536" type="curve" smooth="yes"/>
      <point x="80" y="543"/>
      <point x="93" y="540"/>
    </contour>
    <contour>
      <point x="273" y="285" type="curve" smooth="yes"/>
      <point x="325" y="338"/>
      <point x="421" y="460"/>
      <point x="472" y="532" type="curve" smooth="yes"/>
      <point x="478" y="540"/>
      <point x="491" y="543"/>
      <point x="500" y="536" type="curve" smooth="yes"/>
      <point x="508" y="530"/>
      <point x="511" y="517"/>
      <point x="504" y="508" type="curve" smooth="yes"/>
      <point x="453" y="436"/>
      <point x="355" y="310"/>
      <point x="301" y="257" type="curve" smooth="yes"/>
      <point x="294" y="249"/>
      <point x="280" y="249"/>
      <point x="273" y="257" type="curve" smooth="yes"/>
      <point x="265" y="264"/>
      <point x="265" y="278"/>
    </contour>
    <contour>
      <point x="104" y="287" type="curve" smooth="yes"/>
      <point x="469" y="287" type="line" smooth="yes"/>
      <point x="480" y="287"/>
      <point x="489" y="278"/>
      <point x="489" y="267" type="curve" smooth="yes"/>
      <point x="489" y="256"/>
      <point x="480" y="247"/>
      <point x="469" y="247" type="curve" smooth="yes"/>
      <point x="104" y="247" type="line" smooth="yes"/>
      <point x="93" y="247"/>
      <point x="84" y="256"/>
      <point x="84" y="267" type="curve" smooth="yes"/>
      <point x="84" y="278"/>
      <point x="93" y="287"/>
    </contour>
    <contour>
      <point x="104" y="138" type="curve" smooth="yes"/>
      <point x="469" y="138" type="line" smooth="yes"/>
      <point x="480" y="138"/>
      <point x="489" y="129"/>
      <point x="489" y="118" type="curve" smooth="yes"/>
      <point x="489" y="107"/>
      <point x="480" y="98"/>
      <point x="469" y="98" type="curve" smooth="yes"/>
      <point x="104" y="98" type="line" smooth="yes"/>
      <point x="93" y="98"/>
      <point x="84" y="107"/>
      <point x="84" y="118" type="curve" smooth="yes"/>
      <point x="84" y="129"/>
      <point x="93" y="138"/>
    </contour>
  </outline>
</glyph>
<glyph name="dieresis" format="1">
  <advance width="485"/>
  <unicode hex="00A8"/>
  <outline>
    <contour>
      <point x="143" y="588" type="curve" smooth="yes"/>
      <point x="160" y="588"/>
      <point x="179" y="573"/>
      <point x="179" y="541" type="curve" smooth="yes"/>
      <point x="179" y="510"/>
      <point x="161" y="496"/>
      <point x="143" y="496" type="curve" smooth="yes"/>
      <point x="121" y="496"/>
      <point x="105" y="511"/>
      <point x="105" y="541" type="curve" smooth="yes"/>
      <point x="105" y="571"/>
      <point x="122" y="588"/>
    </contour>
    <contour>
      <point x="329" y="588" type="curve" smooth="yes"/>
      <point x="348" y="588"/>
      <point x="366" y="571"/>
      <point x="366" y="541" type="curve" smooth="yes"/>
      <point x="366" y="511"/>
      <point x="349" y="496"/>
      <point x="329" y="496" type="curve" smooth="yes"/>
      <point x="309" y="496"/>
      <point x="292" y="511"/>
      <point x="292" y="541" type="curve" smooth="yes"/>
      <point x="292" y="571"/>
      <point x="310" y="588"/>
    </contour>
  </outline>
</glyph>
<glyph name="paragraph" format="1">
  <advance width="554"/>
  <unicode hex="00B6"/>
  <outline>
    <contour>
      <point x="420" y="11" type="curve" smooth="yes"/>
      <point x="420" y="520" type="line"/>
      <point x="440" y="500" type="line"/>
      <point x="242" y="500" type="line" smooth="yes"/>
      <point x="149" y="500"/>
      <point x="86" y="442"/>
      <point x="86" y="358" type="curve" smooth="yes"/>
      <point x="86" y="279"/>
      <point x="139" y="216"/>
      <point x="242" y="216" type="curve" smooth="yes"/>
      <point x="301" y="216" type="line" smooth="yes"/>
      <point x="312" y="216"/>
      <point x="321" y="207"/>
      <point x="321" y="196" type="curve" smooth="yes"/>
      <point x="321" y="185"/>
      <point x="312" y="176"/>
      <point x="301" y="176" type="curve" smooth="yes"/>
      <point x="242" y="176" type="line" smooth="yes"/>
      <point x="109" y="176"/>
      <point x="46" y="259"/>
      <point x="46" y="358" type="curve"/>
      <point x="46" y="464"/>
      <point x="123" y="540"/>
      <point x="242" y="540" type="curve" smooth="yes"/>
      <point x="440" y="540" type="line" smooth="yes"/>
      <point x="451" y="540"/>
      <point x="460" y="531"/>
      <point x="460" y="520" type="curve" smooth="yes"/>
      <point x="460" y="11" type="line" smooth="yes"/>
      <point x="460" y="0"/>
      <point x="451" y="-9"/>
      <point x="440" y="-9" type="curve" smooth="yes"/>
      <point x="429" y="-9"/>
      <point x="420" y="0"/>
    </contour>
    <contour>
      <point x="281" y="11" type="curve" smooth="yes"/>
      <point x="281" y="518" type="line" smooth="yes"/>
      <point x="281" y="529"/>
      <point x="290" y="538"/>
      <point x="301" y="538" type="curve" smooth="yes"/>
      <point x="312" y="538"/>
      <point x="321" y="529"/>
      <point x="321" y="518" type="curve" smooth="yes"/>
      <point x="321" y="11" type="line" smooth="yes"/>
      <point x="321" y="0"/>
      <point x="312" y="-9"/>
      <point x="301" y="-9" type="curve" smooth="yes"/>
      <point x="290" y="-9"/>
      <point x="281" y="0"/>
    </contour>
  </outline>
</glyph>
<glyph name="ordmasculine" format="1">
  <advance width="430"/>
  <unicode hex="00BA"/>
  <outline>
    <contour>
      <point x="215" y="536" type="curve" smooth="yes"/>
      <point x="299" y="536"/>
      <point x="354" y="471"/>
      <point x="354" y="394" type="curve" smooth="yes"/>
      <point x="354" y="316"/>
      <point x="299" y="256"/>
      <point x="215" y="256" type="curve" smooth="yes"/>
      <point x="131" y="256"/>
      <point x="75" y="316"/>
      <point x="75" y="394" type="curve" smooth="yes"/>
      <point x="75" y="471"/>
      <point x="128" y="536"/>
    </contour>
    <contour>
      <point x="215" y="496" type="curve" smooth="yes"/>
      <point x="152" y="496"/>
      <point x="115" y="449"/>
      <point x="115" y="394" type="curve" smooth="yes"/>
      <point x="115" y="338"/>
      <point x="155" y="296"/>
      <point x="215" y="296" type="curve" smooth="yes"/>
      <point x="275" y="296"/>
      <point x="314" y="338"/>
      <point x="314" y="394" type="curve" smooth="yes"/>
      <point x="314" y="449"/>
      <point x="275" y="496"/>
    </contour>
    <contour>
      <point x="88" y="175" type="curve" smooth="yes"/>
      <point x="349" y="175" type="line" smooth="yes"/>
      <point x="360" y="175"/>
      <point x="369" y="166"/>
      <point x="369" y="155" type="curve" smooth="yes"/>
      <point x="369" y="144"/>
      <point x="360" y="135"/>
      <point x="349" y="135" type="curve" smooth="yes"/>
      <point x="88" y="135" type="line" smooth="yes"/>
      <point x="77" y="135"/>
      <point x="68" y="144"/>
      <point x="68" y="155" type="curve" smooth="yes"/>
      <point x="68" y="166"/>
      <point x="77" y="175"/>
    </contour>
  </outline>
</glyph>
<glyph name="Adieresis" format="1">
  <advance width="579"/>
  <unicode hex="00C4"/>
  <outline>
    <contour>
      <point x="182" y="723" type="curve" smooth="yes"/>
      <point x="201" y="723"/>
      <point x="219" y="705"/>
      <point x="219" y="675" type="curve" smooth="yes"/>
      <point x="219" y="645"/>
      <point x="201" y="628"/>
      <point x="182" y="628" type="curve" smooth="yes"/>
      <point x="163" y="628"/>
      <point x="144" y="645"/>
      <point x="144" y="675" type="curve" smooth="yes"/>
      <point x="144" y="705"/>
      <point x="163" y="723"/>
    </contour>
    <contour>
      <point x="385" y="723" type="curve" smooth="yes"/>
      <point x="404" y="723"/>
      <point x="422" y="705"/>
      <point x="422" y="675" type="curve" smooth="yes"/>
      <point x="422" y="645"/>
      <point x="404" y="628"/>
      <point x="385" y="628" type="curve" smooth="yes"/>
      <point x="366" y="628"/>
      <point x="347" y="645"/>
      <point x="347" y="675" type="curve" smooth="yes"/>
      <point x="347" y="705"/>
      <point x="366" y="723"/>
    </contour>
    <contour>
      <point x="298" y="517" type="curve" smooth="yes"/>
      <point x="227" y="356"/>
      <point x="128" y="132"/>
      <point x="81" y="-1" type="curve" smooth="yes"/>
      <point x="77" y="-11"/>
      <point x="66" y="-16"/>
      <point x="55" y="-13" type="curve" smooth="yes"/>
      <point x="45" y="-9"/>
      <point x="40" y="2"/>
      <point x="43" y="13" type="curve" smooth="yes"/>
      <point x="90" y="146"/>
      <point x="191" y="372"/>
      <point x="262" y="533" type="curve" smooth="yes"/>
      <point x="266" y="543"/>
      <point x="278" y="548"/>
      <point x="288" y="543" type="curve" smooth="yes"/>
      <point x="298" y="539"/>
      <point x="303" y="527"/>
    </contour>
    <contour>
      <point x="304" y="533" type="curve" smooth="yes"/>
      <point x="380" y="371"/>
      <point x="484" y="144"/>
      <point x="534" y="13" type="curve" smooth="yes"/>
      <point x="538" y="3"/>
      <point x="532" y="-9"/>
      <point x="522" y="-13" type="curve" smooth="yes"/>
      <point x="512" y="-17"/>
      <point x="500" y="-11"/>
      <point x="496" y="-1" type="curve" smooth="yes"/>
      <point x="446" y="128"/>
      <point x="344" y="355"/>
      <point x="268" y="517" type="curve" smooth="yes"/>
      <point x="263" y="526"/>
      <point x="268" y="539"/>
      <point x="278" y="543" type="curve" smooth="yes"/>
      <point x="287" y="548"/>
      <point x="300" y="543"/>
    </contour>
    <contour>
      <point x="134" y="179" type="curve" smooth="yes"/>
      <point x="440" y="179" type="line" smooth="yes"/>
      <point x="451" y="179"/>
      <point x="460" y="170"/>
      <point x="460" y="159" type="curve" smooth="yes"/>
      <point x="460" y="148"/>
      <point x="451" y="139"/>
      <point x="440" y="139" type="curve" smooth="yes"/>
      <point x="134" y="139" type="line" smooth="yes"/>
      <point x="123" y="139"/>
      <point x="114" y="148"/>
      <point x="114" y="159" type="curve" smooth="yes"/>
      <point x="114" y="170"/>
      <point x="123" y="179"/>
    </contour>
    <contour>
      <point x="182" y="683" type="curve" smooth="yes"/>
      <point x="179" y="683"/>
      <point x="184" y="673"/>
      <point x="184" y="675" type="curve" smooth="yes"/>
      <point x="184" y="677"/>
      <point x="179" y="668"/>
      <point x="182" y="668" type="curve" smooth="yes"/>
      <point x="185" y="668"/>
      <point x="179" y="677"/>
      <point x="179" y="675" type="curve" smooth="yes"/>
      <point x="179" y="673"/>
      <point x="185" y="683"/>
    </contour>
    <contour>
      <point x="385" y="683" type="curve" smooth="yes"/>
      <point x="382" y="683"/>
      <point x="387" y="673"/>
      <point x="387" y="675" type="curve" smooth="yes"/>
      <point x="387" y="677"/>
      <point x="382" y="668"/>
      <point x="385" y="668" type="curve" smooth="yes"/>
      <point x="388" y="668"/>
      <point x="382" y="677"/>
      <point x="382" y="675" type="curve" smooth="yes"/>
      <point x="382" y="673"/>
      <point x="388" y="683"/>
    </contour>
  </outline>
</glyph>
<glyph name="Icircumflex" format="1">
  <advance width="239"/>
  <unicode hex="00CE"/>
  <outline>
    <contour>
      <point x="139" y="515" type="curve" smooth="yes"/>
      <point x="139" y="5" type="line" smooth="yes"/>
      <point x="139" y="-6"/>
      <point x="130" y="-15"/>
      <point x="119" y="-15" type="curve" smooth="yes"/>
      <point x="108" y="-15"/>
      <point x="99" y="-6"/>
      <point x="99" y="5" type="curve" smooth="yes"/>
      <point x="99" y="515" type="line" smooth="yes"/>
      <point x="99" y="526"/>
      <point x="108" y="535"/>
      <point x="119" y="535" type="curve" smooth="yes"/>
      <point x="130" y="535"/>
      <point x="139" y="526"/>
    </contour>
    <contour>
      <point x="125" y="725" type="curve" smooth="yes"/>
      <point x="90" y="699"/>
      <point x="54" y="674"/>
      <point x="24" y="652" type="curve" smooth="yes"/>
      <point x="15" y="645"/>
      <point x="2" y="647"/>
      <point x="-4" y="656" type="curve" smooth="yes"/>
      <point x="-11" y="665"/>
      <point x="-9" y="678"/>
      <point x="0" y="684" type="curve" smooth="yes"/>
      <point x="30" y="706"/>
      <point x="66" y="731"/>
      <point x="101" y="757" type="curve" smooth="yes"/>
      <point x="110" y="763"/>
      <point x="123" y="762"/>
      <point x="129" y="753" type="curve" smooth="yes"/>
      <point x="135" y="744"/>
      <point x="134" y="731"/>
    </contour>
    <contour>
      <point x="209" y="652" type="curve" smooth="yes"/>
      <point x="180" y="674"/>
      <point x="144" y="699"/>
      <point x="108" y="725" type="curve" smooth="yes"/>
      <point x="100" y="731"/>
      <point x="97" y="744"/>
      <point x="104" y="753" type="curve" smooth="yes"/>
      <point x="110" y="761"/>
      <point x="123" y="764"/>
      <point x="132" y="757" type="curve" smooth="yes"/>
      <point x="168" y="731"/>
      <point x="204" y="706"/>
      <point x="233" y="684" type="curve" smooth="yes"/>
      <point x="242" y="677"/>
      <point x="243" y="665"/>
      <point x="237" y="656" type="curve" smooth="yes"/>
      <point x="230" y="647"/>
      <point x="218" y="646"/>
    </contour>
  </outline>
</glyph>
<glyph name="ccedilla" format="1">
  <advance width="438"/>
  <unicode hex="00E7"/>
  <outline>
    <contour>
      <point x="355" y="345" type="curve" smooth="yes"/>
      <point x="329" y="353"/>
      <point x="296" y="360"/>
      <point x="268" y="360" type="curve" smooth="yes"/>
      <point x="157" y="360"/>
      <point x="93" y="289"/>
      <point x="93" y="191" type="curve" smooth="yes"/>
      <point x="93" y="105"/>
      <point x="157" y="41"/>
      <point x="267" y="41" type="curve" smooth="yes"/>
      <point x="307" y="41"/>
      <point x="339" y="48"/>
      <point x="366" y="59" type="curve" smooth="yes"/>
      <point x="376" y="64"/>
      <point x="388" y="59"/>
      <point x="392" y="49" type="curve" smooth="yes"/>
      <point x="397" y="39"/>
      <point x="392" y="27"/>
      <point x="382" y="23" type="curve" smooth="yes"/>
      <point x="351" y="10"/>
      <point x="313" y="1"/>
      <point x="267" y="1" type="curve" smooth="yes"/>
      <point x="127" y="1"/>
      <point x="53" y="85"/>
      <point x="53" y="191" type="curve"/>
      <point x="53" y="311"/>
      <point x="131" y="400"/>
      <point x="268" y="400" type="curve" smooth="yes"/>
      <point x="300" y="400"/>
      <point x="337" y="393"/>
      <point x="367" y="383" type="curve" smooth="yes"/>
      <point x="377" y="380"/>
      <point x="383" y="368"/>
      <point x="380" y="358" type="curve" smooth="yes"/>
      <point x="377" y="348"/>
      <point x="365" y="342"/>
    </contour>
    <contour>
      <point x="288" y="-147" type="curve" smooth="yes"/>
      <point x="260" y="-174"/>
      <point x="206" y="-228"/>
      <point x="182" y="-252" type="curve" smooth="yes"/>
      <point x="175" y="-260"/>
      <point x="161" y="-260"/>
      <point x="154" y="-252" type="curve" smooth="yes"/>
      <point x="146" y="-245"/>
      <point x="146" y="-231"/>
      <point x="154" y="-224" type="curve" smooth="yes"/>
      <point x="178" y="-200"/>
      <point x="232" y="-146"/>
      <point x="260" y="-119" type="curve" smooth="yes"/>
      <point x="268" y="-111"/>
      <point x="281" y="-111"/>
      <point x="288" y="-119" type="curve" smooth="yes"/>
      <point x="296" y="-127"/>
      <point x="296" y="-140"/>
    </contour>
  </outline>
</glyph>
<glyph name="divide" format="1">
  <advance width="527"/>
  <unicode hex="00F7"/>
  <outline>
    <contour>
      <point x="265" y="153" type="curve" smooth="yes"/>
      <point x="288" y="153"/>
      <point x="303" y="134"/>
      <point x="303" y="107" type="curve" smooth="yes"/>
      <point x="303" y="77"/>
      <point x="289" y="62"/>
      <point x="266" y="62" type="curve" smooth="yes"/>
      <point x="246" y="62"/>
      <point x="228" y="77"/>
      <point x="228" y="107" type="curve" smooth="yes"/>
      <point x="228" y="135"/>
      <point x="242" y="153"/>
    </contour>
    <contour>
      <point x="265" y="469" type="curve" smooth="yes"/>
      <point x="288" y="469"/>
      <point x="303" y="449"/>
      <point x="303" y="424" type="curve" smooth="yes"/>
      <point x="303" y="391"/>
      <point x="289" y="378"/>
      <point x="266" y="378" type="curve" smooth="yes"/>
      <point x="247" y="378"/>
      <point x="228" y="392"/>
      <point x="228" y="424" type="curve" smooth="yes"/>
      <point x="228" y="450"/>
      <point x="242" y="469"/>
    </contour>
    <contour>
      <point x="86" y="287" type="curve" smooth="yes"/>
      <point x="440" y="287" type="line" smooth="yes"/>
      <point x="451" y="287"/>
      <point x="460" y="278"/>
      <point x="460" y="267" type="curve" smooth="yes"/>
      <point x="460" y="256"/>
      <point x="451" y="247"/>
      <point x="440" y="247" type="curve" smooth="yes"/>
      <point x="86" y="247" type="line" smooth="yes"/>
      <point x="75" y="247"/>
      <point x="66" y="256"/>
      <point x="66" y="267" type="curve" smooth="yes"/>
      <point x="66" y="278"/>
      <point x="75" y="287"/>
    </contour>
  </outline>
</glyph>
<glyph name="ucircumflex" format="1">
  <advance width="492"/>
  <unicode hex="00FB"/>
  <outline>
    <contour>
      <point x="411" y="368" type="curve" smooth="yes"/>
      <point x="411" y="9" type="line" smooth="yes"/>
      <point x="411" y="-2"/>
      <point x="402" y="-11"/>
      <point x="391" y="-11" type="curve" smooth="yes"/>
      <point x="380" y="-11"/>
      <point x="371" y="-2"/>
      <point x="371" y="9" type="curve" smooth="yes"/>
      <point x="371" y="368" type="line" smooth="yes"/>
      <point x="371" y="379"/>
      <point x="380" y="388"/>
      <point x="391" y="388" type="curve" smooth="yes"/>
      <point x="402" y="388"/>
      <point x="411" y="379"/>
    </contour>
    <contour>
      <point x="110" y="368" type="curve" smooth="yes"/>
      <point x="110" y="158" type="line" smooth="yes"/>
      <point x="110" y="67"/>
      <point x="149" y="29"/>
      <point x="208" y="29" type="curve" smooth="yes"/>
      <point x="269" y="29"/>
      <point x="331" y="77"/>
      <point x="371" y="133" type="curve" smooth="yes"/>
      <point x="377" y="141"/>
      <point x="390" y="144"/>
      <point x="399" y="137" type="curve" smooth="yes"/>
      <point x="407" y="131"/>
      <point x="410" y="118"/>
      <point x="403" y="109" type="curve" smooth="yes"/>
      <point x="355" y="43"/>
      <point x="279" y="-11"/>
      <point x="208" y="-11" type="curve" smooth="yes"/>
      <point x="131" y="-11"/>
      <point x="70" y="29"/>
      <point x="70" y="158" type="curve" smooth="yes"/>
      <point x="70" y="368" type="line" smooth="yes"/>
      <point x="70" y="379"/>
      <point x="79" y="388"/>
      <point x="90" y="388" type="curve" smooth="yes"/>
      <point x="101" y="388"/>
      <point x="110" y="379"/>
    </contour>
    <contour>
      <point x="251" y="593" type="curve" smooth="yes"/>
      <point x="220" y="562"/>
      <point x="186" y="529"/>
      <point x="159" y="502" type="curve" smooth="yes"/>
      <point x="152" y="494"/>
      <point x="138" y="494"/>
      <point x="131" y="502" type="curve" smooth="yes"/>
      <point x="123" y="509"/>
      <point x="123" y="523"/>
      <point x="131" y="530" type="curve" smooth="yes"/>
      <point x="158" y="557"/>
      <point x="192" y="590"/>
      <point x="223" y="621" type="curve" smooth="yes"/>
      <point x="230" y="629"/>
      <point x="244" y="629"/>
      <point x="251" y="621" type="curve" smooth="yes"/>
      <point x="259" y="614"/>
      <point x="259" y="600"/>
    </contour>
    <contour>
      <point x="322" y="502" type="curve" smooth="yes"/>
      <point x="294" y="529"/>
      <point x="262" y="561"/>
      <point x="229" y="592" type="curve" smooth="yes"/>
      <point x="221" y="600"/>
      <point x="221" y="613"/>
      <point x="228" y="621" type="curve" smooth="yes"/>
      <point x="236" y="629"/>
      <point x="249" y="629"/>
      <point x="257" y="622" type="curve" smooth="yes"/>
      <point x="290" y="591"/>
      <point x="322" y="557"/>
      <point x="350" y="530" type="curve" smooth="yes"/>
      <point x="358" y="523"/>
      <point x="358" y="510"/>
      <point x="350" y="502" type="curve" smooth="yes"/>
      <point x="343" y="494"/>
      <point x="330" y="494"/>
    </contour>
  </outline>
</glyph>
<glyph name="aogonek" format="1">
  <advance width="446"/>
  <unicode hex="0105"/>
  <outline>
    <contour>
      <point x="109" y="381" type="curve" smooth="yes"/>
      <point x="133" y="389"/>
      <point x="177" y="399"/>
      <point x="214" y="399" type="curve" smooth="yes"/>
      <point x="323" y="399"/>
      <point x="374" y="332"/>
      <point x="374" y="235" type="curve" smooth="yes"/>
      <point x="374" y="140" type="line" smooth="yes"/>
      <point x="374" y="89"/>
      <point x="386" y="59"/>
      <point x="408" y="35" type="curve" smooth="yes"/>
      <point x="415" y="27"/>
      <point x="415" y="14"/>
      <point x="407" y="6" type="curve" smooth="yes"/>
      <point x="399" y="-1"/>
      <point x="386" y="-1"/>
      <point x="378" y="7" type="curve" smooth="yes"/>
      <point x="350" y="37"/>
      <point x="334" y="75"/>
      <point x="334" y="140" type="curve" smooth="yes"/>
      <point x="334" y="235" type="line" smooth="yes"/>
      <point x="334" y="308"/>
      <point x="297" y="359"/>
      <point x="214" y="359" type="curve" smooth="yes"/>
      <point x="181" y="359"/>
      <point x="143" y="351"/>
      <point x="123" y="343" type="curve" smooth="yes"/>
      <point x="113" y="340"/>
      <point x="101" y="345"/>
      <point x="97" y="355" type="curve" smooth="yes"/>
      <point x="94" y="365"/>
      <point x="99" y="377"/>
    </contour>
    <contour>
      <point x="352" y="204" type="curve" smooth="yes"/>
      <point x="318" y="205"/>
      <point x="286" y="207"/>
      <point x="256" y="207" type="curve" smooth="yes"/>
      <point x="186" y="207"/>
      <point x="139" y="191"/>
      <point x="110" y="162" type="curve" smooth="yes"/>
      <point x="92" y="145"/>
      <point x="87" y="126"/>
      <point x="87" y="105" type="curve" smooth="yes"/>
      <point x="87" y="74"/>
      <point x="112" y="40"/>
      <point x="169" y="40" type="curve" smooth="yes"/>
      <point x="239" y="40"/>
      <point x="292" y="69"/>
      <point x="338" y="132" type="curve" smooth="yes"/>
      <point x="344" y="140"/>
      <point x="357" y="143"/>
      <point x="366" y="136" type="curve" smooth="yes"/>
      <point x="374" y="130"/>
      <point x="377" y="117"/>
      <point x="370" y="108" type="curve" smooth="yes"/>
      <point x="316" y="33"/>
      <point x="253" y="0"/>
      <point x="169" y="0" type="curve" smooth="yes"/>
      <point x="76" y="0"/>
      <point x="47" y="60"/>
      <point x="47" y="105" type="curve"/>
      <point x="47" y="136"/>
      <point x="56" y="165"/>
      <point x="82" y="190" type="curve" smooth="yes"/>
      <point x="117" y="225"/>
      <point x="172" y="247"/>
      <point x="256" y="247" type="curve" smooth="yes"/>
      <point x="286" y="247"/>
      <point x="318" y="245"/>
      <point x="354" y="244" type="curve" smooth="yes"/>
      <point x="364" y="244"/>
      <point x="373" y="234"/>
      <point x="373" y="223" type="curve" smooth="yes"/>
      <point x="373" y="213"/>
      <point x="363" y="204"/>
    </contour>
    <contour>
      <point x="413" y="22" type="curve" smooth="yes"/>
      <point x="413" y="-15" type="line" smooth="yes"/>
      <point x="413" y="-20"/>
      <point x="410" y="-27"/>
      <point x="406" y="-31" type="curve" smooth="yes"/>
      <point x="326" y="-95"/>
      <point x="305" y="-121"/>
      <point x="305" y="-146" type="curve" smooth="yes"/>
      <point x="305" y="-177"/>
      <point x="353" y="-189"/>
      <point x="409" y="-189" type="curve" smooth="yes"/>
      <point x="420" y="-189"/>
      <point x="429" y="-198"/>
      <point x="429" y="-209" type="curve" smooth="yes"/>
      <point x="429" y="-220"/>
      <point x="420" y="-229"/>
      <point x="409" y="-229" type="curve" smooth="yes"/>
      <point x="301" y="-229"/>
      <point x="265" y="-189"/>
      <point x="265" y="-146" type="curve" smooth="yes"/>
      <point x="265" y="-115"/>
      <point x="280" y="-81"/>
      <point x="380" y="1" type="curve"/>
      <point x="373" y="-15" type="line"/>
      <point x="373" y="22" type="line" smooth="yes"/>
      <point x="373" y="33"/>
      <point x="382" y="42"/>
      <point x="393" y="42" type="curve" smooth="yes"/>
      <point x="404" y="42"/>
      <point x="413" y="33"/>
    </contour>
  </outline>
</glyph>
<glyph name="Cacute" format="1">
  <advance width="564"/>
  <unicode hex="0106"/>
  <outline>
    <contour>
      <point x="469" y="476" type="curve" smooth="yes"/>
      <point x="437" y="494"/>
      <point x="387" y="504"/>
      <point x="336" y="504" type="curve" smooth="yes"/>
      <point x="206" y="504"/>
      <point x="95" y="405"/>
      <point x="95" y="257" type="curve" smooth="yes"/>
      <point x="95" y="121"/>
      <point x="186" y="16"/>
      <point x="342" y="16" type="curve" smooth="yes"/>
      <point x="393" y="16"/>
      <point x="438" y="27"/>
      <point x="475" y="46" type="curve" smooth="yes"/>
      <point x="484" y="51"/>
      <point x="497" y="47"/>
      <point x="502" y="37" type="curve" smooth="yes"/>
      <point x="507" y="28"/>
      <point x="503" y="15"/>
      <point x="493" y="10" type="curve" smooth="yes"/>
      <point x="452" y="-11"/>
      <point x="401" y="-24"/>
      <point x="342" y="-24" type="curve" smooth="yes"/>
      <point x="160" y="-24"/>
      <point x="55" y="99"/>
      <point x="55" y="257" type="curve" smooth="yes"/>
      <point x="55" y="429"/>
      <point x="186" y="544"/>
      <point x="336" y="544" type="curve" smooth="yes"/>
      <point x="395" y="544"/>
      <point x="451" y="532"/>
      <point x="489" y="512" type="curve" smooth="yes"/>
      <point x="498" y="506"/>
      <point x="502" y="494"/>
      <point x="497" y="484" type="curve" smooth="yes"/>
      <point x="491" y="475"/>
      <point x="479" y="471"/>
    </contour>
    <contour>
      <point x="455" y="726" type="curve" smooth="yes"/>
      <point x="408" y="697"/>
      <point x="357" y="666"/>
      <point x="328" y="644" type="curve" smooth="yes"/>
      <point x="319" y="637"/>
      <point x="306" y="639"/>
      <point x="300" y="648" type="curve" smooth="yes"/>
      <point x="293" y="657"/>
      <point x="295" y="670"/>
      <point x="304" y="676" type="curve" smooth="yes"/>
      <point x="335" y="698"/>
      <point x="386" y="731"/>
      <point x="435" y="760" type="curve" smooth="yes"/>
      <point x="444" y="766"/>
      <point x="457" y="763"/>
      <point x="462" y="753" type="curve" smooth="yes"/>
      <point x="468" y="744"/>
      <point x="465" y="731"/>
    </contour>
  </outline>
</glyph>
<glyph name="Ccaron" format="1">
  <advance width="564"/>
  <unicode hex="010C"/>
  <outline>
    <contour>
      <point x="469" y="476" type="curve" smooth="yes"/>
      <point x="437" y="494"/>
      <point x="387" y="504"/>
      <point x="336" y="504" type="curve" smooth="yes"/>
      <point x="206" y="504"/>
      <point x="95" y="405"/>
      <point x="95" y="257" type="curve" smooth="yes"/>
      <point x="95" y="121"/>
      <point x="186" y="16"/>
      <point x="342" y="16" type="curve" smooth="yes"/>
      <point x="393" y="16"/>
      <point x="438" y="27"/>
      <point x="475" y="46" type="curve" smooth="yes"/>
      <point x="484" y="51"/>
      <point x="497" y="47"/>
      <point x="502" y="37" type="curve" smooth="yes"/>
      <point x="507" y="28"/>
      <point x="503" y="15"/>
      <point x="493" y="10" type="curve" smooth="yes"/>
      <point x="452" y="-11"/>
      <point x="401" y="-24"/>
      <point x="342" y="-24" type="curve" smooth="yes"/>
      <point x="160" y="-24"/>
      <point x="55" y="99"/>
      <point x="55" y="257" type="curve" smooth="yes"/>
      <point x="55" y="429"/>
      <point x="186" y="544"/>
      <point x="336" y="544" type="curve" smooth="yes"/>
      <point x="395" y="544"/>
      <point x="451" y="532"/>
      <point x="489" y="512" type="curve" smooth="yes"/>
      <point x="498" y="506"/>
      <point x="502" y="494"/>
      <point x="497" y="484" type="curve" smooth="yes"/>
      <point x="491" y="475"/>
      <point x="479" y="471"/>
    </contour>
    <contour>
      <point x="317" y="684" type="curve" smooth="yes"/>
      <point x="352" y="709"/>
      <point x="389" y="735"/>
      <point x="418" y="757" type="curve" smooth="yes"/>
      <point x="427" y="763"/>
      <point x="439" y="762"/>
      <point x="446" y="753" type="curve" smooth="yes"/>
      <point x="452" y="744"/>
      <point x="451" y="732"/>
      <point x="442" y="725" type="curve" smooth="yes"/>
      <point x="413" y="703"/>
      <point x="376" y="677"/>
      <point x="341" y="652" type="curve" smooth="yes"/>
      <point x="332" y="645"/>
      <point x="319" y="648"/>
      <point x="313" y="656" type="curve" smooth="yes"/>
      <point x="306" y="665"/>
      <point x="309" y="678"/>
    </contour>
    <contour>
      <point x="233" y="757" type="curve" smooth="yes"/>
      <point x="263" y="735"/>
      <point x="298" y="709"/>
      <point x="333" y="684" type="curve" smooth="yes"/>
      <point x="342" y="678"/>
      <point x="345" y="665"/>
      <point x="338" y="657" type="curve" smooth="yes"/>
      <point x="332" y="648"/>
      <point x="319" y="645"/>
      <point x="311" y="652" type="curve" smooth="yes"/>
      <point x="274" y="677"/>
      <point x="239" y="703"/>
      <point x="209" y="725" type="curve" smooth="yes"/>
      <point x="200" y="731"/>
      <point x="198" y="744"/>
      <point x="205" y="753" type="curve" smooth="yes"/>
      <point x="211" y="762"/>
      <point x="224" y="764"/>
    </contour>
  </outline>
</glyph>
<glyph name="edotaccent" format="1">
  <advance width="473"/>
  <unicode hex="0117"/>
  <outline>
    <contour>
      <point x="237" y="606" type="curve" smooth="yes"/>
      <point x="256" y="606"/>
      <point x="274" y="588"/>
      <point x="274" y="558" type="curve" smooth="yes"/>
      <point x="274" y="530"/>
      <point x="257" y="513"/>
      <point x="237" y="513" type="curve" smooth="yes"/>
      <point x="214" y="513"/>
      <point x="197" y="532"/>
      <point x="197" y="558" type="curve" smooth="yes"/>
      <point x="197" y="586"/>
      <point x="215" y="606"/>
    </contour>
    <contour>
      <point x="86" y="208" type="curve" smooth="yes"/>
      <point x="306" y="208" type="line" smooth="yes"/>
      <point x="350" y="208"/>
      <point x="372" y="222"/>
      <point x="372" y="253" type="curve" smooth="yes"/>
      <point x="372" y="296"/>
      <point x="321" y="348"/>
      <point x="249" y="348" type="curve" smooth="yes"/>
      <point x="162" y="348"/>
      <point x="93" y="282"/>
      <point x="93" y="184" type="curve" smooth="yes"/>
      <point x="93" y="82"/>
      <point x="167" y="29"/>
      <point x="270" y="29" type="curve" smooth="yes"/>
      <point x="305" y="29"/>
      <point x="340" y="37"/>
      <point x="365" y="47" type="curve" smooth="yes"/>
      <point x="375" y="51"/>
      <point x="387" y="45"/>
      <point x="391" y="35" type="curve" smooth="yes"/>
      <point x="395" y="25"/>
      <point x="389" y="13"/>
      <point x="379" y="9" type="curve" smooth="yes"/>
      <point x="350" y="-1"/>
      <point x="311" y="-11"/>
      <point x="270" y="-11" type="curve" smooth="yes"/>
      <point x="141" y="-11"/>
      <point x="53" y="58"/>
      <point x="53" y="184" type="curve"/>
      <point x="53" y="307"/>
      <point x="140" y="388"/>
      <point x="249" y="388" type="curve" smooth="yes"/>
      <point x="351" y="388"/>
      <point x="412" y="310"/>
      <point x="412" y="253" type="curve" smooth="yes"/>
      <point x="412" y="204"/>
      <point x="388" y="168"/>
      <point x="306" y="168" type="curve" smooth="yes"/>
      <point x="86" y="168" type="line" smooth="yes"/>
      <point x="75" y="168"/>
      <point x="66" y="177"/>
      <point x="66" y="188" type="curve" smooth="yes"/>
      <point x="66" y="199"/>
      <point x="75" y="208"/>
    </contour>
  </outline>
</glyph>
<glyph name="gbreve" format="1">
  <advance width="508"/>
  <unicode hex="011F"/>
  <outline>
    <contour>
      <point x="399" y="316" type="curve" smooth="yes"/>
      <point x="348" y="340"/>
      <point x="313" y="353"/>
      <point x="258" y="353" type="curve" smooth="yes"/>
      <point x="174" y="353"/>
      <point x="93" y="287"/>
      <point x="93" y="184" type="curve" smooth="yes"/>
      <point x="93" y="89"/>
      <point x="156" y="46"/>
      <point x="222" y="46" type="curve" smooth="yes"/>
      <point x="285" y="46"/>
      <point x="347" y="82"/>
      <point x="390" y="150" type="curve" smooth="yes"/>
      <point x="396" y="159"/>
      <point x="409" y="162"/>
      <point x="418" y="156" type="curve" smooth="yes"/>
      <point x="427" y="150"/>
      <point x="430" y="137"/>
      <point x="424" y="128" type="curve" smooth="yes"/>
      <point x="373" y="48"/>
      <point x="297" y="6"/>
      <point x="222" y="6" type="curve" smooth="yes"/>
      <point x="138" y="6"/>
      <point x="53" y="59"/>
      <point x="53" y="184" type="curve"/>
      <point x="53" y="311"/>
      <point x="154" y="393"/>
      <point x="258" y="393" type="curve" smooth="yes"/>
      <point x="319" y="393"/>
      <point x="358" y="380"/>
      <point x="417" y="352" type="curve" smooth="yes"/>
      <point x="426" y="347"/>
      <point x="431" y="335"/>
      <point x="426" y="325" type="curve" smooth="yes"/>
      <point x="421" y="316"/>
      <point x="409" y="311"/>
    </contour>
    <contour>
      <point x="165" y="-156" type="curve" smooth="yes"/>
      <point x="319" y="-156"/>
      <point x="388" y="-70"/>
      <point x="388" y="62" type="curve" smooth="yes"/>
      <point x="388" y="373" type="line" smooth="yes"/>
      <point x="388" y="384"/>
      <point x="397" y="393"/>
      <point x="408" y="393" type="curve" smooth="yes"/>
      <point x="419" y="393"/>
      <point x="428" y="384"/>
      <point x="428" y="373" type="curve" smooth="yes"/>
      <point x="428" y="62" type="line" smooth="yes"/>
      <point x="428" y="-94"/>
      <point x="347" y="-196"/>
      <point x="165" y="-196" type="curve" smooth="yes"/>
      <point x="154" y="-196"/>
      <point x="145" y="-187"/>
      <point x="145" y="-176" type="curve" smooth="yes"/>
      <point x="145" y="-165"/>
      <point x="154" y="-156"/>
    </contour>
    <contour>
      <point x="164" y="606" type="curve" smooth="yes"/>
      <point x="186" y="575"/>
      <point x="217" y="551"/>
      <point x="255" y="551" type="curve" smooth="yes"/>
      <point x="297" y="551"/>
      <point x="322" y="574"/>
      <point x="342" y="606" type="curve" smooth="yes"/>
      <point x="348" y="615"/>
      <point x="361" y="618"/>
      <point x="370" y="612" type="curve" smooth="yes"/>
      <point x="379" y="606"/>
      <point x="382" y="593"/>
      <point x="376" y="584" type="curve" smooth="yes"/>
      <point x="348" y="540"/>
      <point x="313" y="511"/>
      <point x="255" y="511" type="curve" smooth="yes"/>
      <point x="205" y="511"/>
      <point x="162" y="541"/>
      <point x="132" y="584" type="curve" smooth="yes"/>
      <point x="125" y="592"/>
      <point x="128" y="605"/>
      <point x="137" y="611" type="curve" smooth="yes"/>
      <point x="145" y="618"/>
      <point x="158" y="615"/>
    </contour>
  </outline>
</glyph>
<glyph name="uni013C" format="1">
  <advance width="214"/>
  <unicode hex="013C"/>
  <outline>
    <contour>
      <point x="87" y="17" type="curve" smooth="yes"/>
      <point x="87" y="553" type="line" smooth="yes"/>
      <point x="87" y="564"/>
      <point x="96" y="573"/>
      <point x="107" y="573" type="curve" smooth="yes"/>
      <point x="118" y="573"/>
      <point x="127" y="564"/>
      <point x="127" y="553" type="curve" smooth="yes"/>
      <point x="127" y="17" type="line" smooth="yes"/>
      <point x="127" y="6"/>
      <point x="118" y="-3"/>
      <point x="107" y="-3" type="curve" smooth="yes"/>
      <point x="96" y="-3"/>
      <point x="87" y="6"/>
    </contour>
    <contour>
      <point x="124" y="-107" type="curve" smooth="yes"/>
      <point x="131" y="-121"/>
      <point x="135" y="-139"/>
      <point x="135" y="-156" type="curve" smooth="yes"/>
      <point x="135" y="-201"/>
      <point x="102" y="-245"/>
      <point x="42" y="-272" type="curve" smooth="yes"/>
      <point x="33" y="-277"/>
      <point x="20" y="-272"/>
      <point x="16" y="-262" type="curve" smooth="yes"/>
      <point x="11" y="-253"/>
      <point x="16" y="-240"/>
      <point x="26" y="-236" type="curve" smooth="yes"/>
      <point x="66" y="-217"/>
      <point x="95" y="-189"/>
      <point x="95" y="-156" type="curve" smooth="yes"/>
      <point x="95" y="-145"/>
      <point x="93" y="-135"/>
      <point x="88" y="-127" type="curve" smooth="yes"/>
      <point x="83" y="-117"/>
      <point x="87" y="-105"/>
      <point x="96" y="-99" type="curve" smooth="yes"/>
      <point x="106" y="-94"/>
      <point x="118" y="-98"/>
    </contour>
  </outline>
</glyph>
<glyph name="Omacron" format="1">
  <advance width="642"/>
  <unicode hex="014C"/>
  <outline>
    <contour>
      <point x="323" y="545" type="curve" smooth="yes"/>
      <point x="469" y="545"/>
      <point x="587" y="429"/>
      <point x="587" y="261" type="curve" smooth="yes"/>
      <point x="587" y="101"/>
      <point x="489" y="-23"/>
      <point x="323" y="-23" type="curve" smooth="yes"/>
      <point x="166" y="-23"/>
      <point x="55" y="101"/>
      <point x="55" y="258" type="curve" smooth="yes"/>
      <point x="55" y="429"/>
      <point x="164" y="545"/>
    </contour>
    <contour>
      <point x="323" y="505" type="curve" smooth="yes"/>
      <point x="186" y="505"/>
      <point x="95" y="403"/>
      <point x="95" y="258" type="curve" smooth="yes"/>
      <point x="95" y="125"/>
      <point x="188" y="17"/>
      <point x="323" y="17" type="curve" smooth="yes"/>
      <point x="465" y="17"/>
      <point x="547" y="125"/>
      <point x="547" y="261" type="curve" smooth="yes"/>
      <point x="547" y="403"/>
      <point x="449" y="505"/>
    </contour>
    <contour>
      <point x="458" y="681" type="curve" smooth="yes"/>
      <point x="165" y="681" type="line" smooth="yes"/>
      <point x="154" y="681"/>
      <point x="145" y="690"/>
      <point x="145" y="701" type="curve" smooth="yes"/>
      <point x="145" y="712"/>
      <point x="154" y="721"/>
      <point x="165" y="721" type="curve" smooth="yes"/>
      <point x="458" y="721" type="line" smooth="yes"/>
      <point x="469" y="721"/>
      <point x="478" y="712"/>
      <point x="478" y="701" type="curve" smooth="yes"/>
      <point x="478" y="690"/>
      <point x="469" y="681"/>
    </contour>
  </outline>
</glyph>
<glyph name="ohungarumlaut" format="1">
  <advance width="510"/>
  <unicode hex="0151"/>
  <outline>
    <contour>
      <point x="254" y="392" type="curve" smooth="yes"/>
      <point x="379" y="392"/>
      <point x="457" y="298"/>
      <point x="457" y="183" type="curve" smooth="yes"/>
      <point x="457" y="71"/>
      <point x="379" y="-15"/>
      <point x="254" y="-15" type="curve" smooth="yes"/>
      <point x="131" y="-15"/>
      <point x="52" y="72"/>
      <point x="52" y="185" type="curve"/>
      <point x="52" y="298"/>
      <point x="129" y="392"/>
    </contour>
    <contour>
      <point x="254" y="352" type="curve" smooth="yes"/>
      <point x="153" y="352"/>
      <point x="92" y="276"/>
      <point x="92" y="185" type="curve" smooth="yes"/>
      <point x="92" y="94"/>
      <point x="155" y="25"/>
      <point x="254" y="25" type="curve" smooth="yes"/>
      <point x="353" y="25"/>
      <point x="417" y="93"/>
      <point x="417" y="183" type="curve" smooth="yes"/>
      <point x="417" y="276"/>
      <point x="355" y="352"/>
    </contour>
    <contour>
      <point x="224" y="593" type="curve" smooth="yes"/>
      <point x="202" y="559"/>
      <point x="186" y="528"/>
      <point x="175" y="498" type="curve" smooth="yes"/>
      <point x="171" y="488"/>
      <point x="159" y="482"/>
      <point x="149" y="486" type="curve" smooth="yes"/>
      <point x="139" y="490"/>
      <point x="133" y="502"/>
      <point x="137" y="512" type="curve" smooth="yes"/>
      <point x="150" y="544"/>
      <point x="166" y="577"/>
      <point x="190" y="615" type="curve" smooth="yes"/>
      <point x="196" y="624"/>
      <point x="209" y="627"/>
      <point x="218" y="621" type="curve" smooth="yes"/>
      <point x="227" y="615"/>
      <point x="230" y="602"/>
    </contour>
    <contour>
      <point x="397" y="593" type="curve" smooth="yes"/>
      <point x="375" y="558"/>
      <point x="360" y="527"/>
      <point x="347" y="497" type="curve" smooth="yes"/>
      <point x="343" y="487"/>
      <point x="331" y="482"/>
      <point x="321" y="487" type="curve" smooth="yes"/>
      <point x="311" y="491"/>
      <point x="306" y="503"/>
      <point x="311" y="513" type="curve" smooth="yes"/>
      <point x="324" y="545"/>
      <point x="339" y="578"/>
      <point x="363" y="615" type="curve" smooth="yes"/>
      <point x="369" y="624"/>
      <point x="382" y="627"/>
      <point x="391" y="621" type="curve" smooth="yes"/>
      <point x="400" y="615"/>
      <point x="403" y="602"/>
    </contour>
  </outline>
</glyph>
<glyph name="OE" format="1">
  <advance width="822"/>
  <unicode hex="0152"/>
  <outline>
    <contour>
      <point x="463" y="500" type="curve" smooth="yes"/>
      <point x="323" y="500" type="line" smooth="yes"/>
      <point x="187" y="500"/>
      <point x="95" y="403"/>
      <point x="95" y="263" type="curve" smooth="yes"/>
      <point x="95" y="133"/>
      <point x="189" y="31"/>
      <point x="323" y="31" type="curve" smooth="yes"/>
      <point x="493" y="31" type="line" smooth="yes"/>
      <point x="504" y="31"/>
      <point x="513" y="22"/>
      <point x="513" y="11" type="curve" smooth="yes"/>
      <point x="513" y="0"/>
      <point x="504" y="-9"/>
      <point x="493" y="-9" type="curve" smooth="yes"/>
      <point x="323" y="-9" type="line" smooth="yes"/>
      <point x="165" y="-9"/>
      <point x="55" y="111"/>
      <point x="55" y="263" type="curve" smooth="yes"/>
      <point x="55" y="427"/>
      <point x="163" y="540"/>
      <point x="323" y="540" type="curve" smooth="yes"/>
      <point x="463" y="540" type="line" smooth="yes"/>
      <point x="474" y="540"/>
      <point x="483" y="531"/>
      <point x="483" y="520" type="curve" smooth="yes"/>
      <point x="483" y="509"/>
      <point x="474" y="500"/>
    </contour>
    <contour>
      <point x="474" y="520" type="curve" smooth="yes"/>
      <point x="474" y="11" type="line" smooth="yes"/>
      <point x="474" y="0"/>
      <point x="465" y="-9"/>
      <point x="454" y="-9" type="curve" smooth="yes"/>
      <point x="443" y="-9"/>
      <point x="434" y="0"/>
      <point x="434" y="11" type="curve" smooth="yes"/>
      <point x="434" y="520" type="line" smooth="yes"/>
      <point x="434" y="531"/>
      <point x="443" y="540"/>
      <point x="454" y="540" type="curve" smooth="yes"/>
      <point x="465" y="540"/>
      <point x="474" y="531"/>
    </contour>
    <contour>
      <point x="463" y="31" type="curve" smooth="yes"/>
      <point x="747" y="31" type="line" smooth="yes"/>
      <point x="758" y="31"/>
      <point x="767" y="22"/>
      <point x="767" y="11" type="curve" smooth="yes"/>
      <point x="767" y="0"/>
      <point x="758" y="-9"/>
      <point x="747" y="-9" type="curve" smooth="yes"/>
      <point x="463" y="-9" type="line" smooth="yes"/>
      <point x="452" y="-9"/>
      <point x="443" y="0"/>
      <point x="443" y="11" type="curve" smooth="yes"/>
      <point x="443" y="22"/>
      <point x="452" y="31"/>
    </contour>
    <contour>
      <point x="463" y="540" type="curve" smooth="yes"/>
      <point x="745" y="540" type="line" smooth="yes"/>
      <point x="756" y="540"/>
      <point x="765" y="531"/>
      <point x="765" y="520" type="curve" smooth="yes"/>
      <point x="765" y="509"/>
      <point x="756" y="500"/>
      <point x="745" y="500" type="curve" smooth="yes"/>
      <point x="463" y="500" type="line" smooth="yes"/>
      <point x="452" y="500"/>
      <point x="443" y="509"/>
      <point x="443" y="520" type="curve" smooth="yes"/>
      <point x="443" y="531"/>
      <point x="452" y="540"/>
    </contour>
    <contour>
      <point x="463" y="305" type="curve" smooth="yes"/>
      <point x="700" y="305" type="line" smooth="yes"/>
      <point x="711" y="305"/>
      <point x="720" y="296"/>
      <point x="720" y="285" type="curve" smooth="yes"/>
      <point x="720" y="274"/>
      <point x="711" y="265"/>
      <point x="700" y="265" type="curve" smooth="yes"/>
      <point x="463" y="265" type="line" smooth="yes"/>
      <point x="452" y="265"/>
      <point x="443" y="274"/>
      <point x="443" y="285" type="curve" smooth="yes"/>
      <point x="443" y="296"/>
      <point x="452" y="305"/>
    </contour>
  </outline>
</glyph>
<glyph name="Racute" format="1">
  <advance width="538"/>
  <unicode hex="0154"/>
  <outline>
    <contour>
      <point x="131" y="234" type="curve" smooth="yes"/>
      <point x="269" y="234" type="line" smooth="yes"/>
      <point x="370" y="234"/>
      <point x="423" y="292"/>
      <point x="423" y="365" type="curve" smooth="yes"/>
      <point x="423" y="443"/>
      <point x="360" y="495"/>
      <point x="269" y="495" type="curve" smooth="yes"/>
      <point x="114" y="495" type="line"/>
      <point x="134" y="515" type="line"/>
      <point x="134" y="5" type="line" smooth="yes"/>
      <point x="134" y="-6"/>
      <point x="125" y="-15"/>
      <point x="114" y="-15" type="curve" smooth="yes"/>
      <point x="103" y="-15"/>
      <point x="94" y="-6"/>
      <point x="94" y="5" type="curve" smooth="yes"/>
      <point x="94" y="515" type="line" smooth="yes"/>
      <point x="94" y="526"/>
      <point x="103" y="535"/>
      <point x="114" y="535" type="curve" smooth="yes"/>
      <point x="269" y="535" type="line" smooth="yes"/>
      <point x="388" y="535"/>
      <point x="463" y="463"/>
      <point x="463" y="365" type="curve" smooth="yes"/>
      <point x="463" y="274"/>
      <point x="400" y="194"/>
      <point x="269" y="194" type="curve" smooth="yes"/>
      <point x="131" y="194" type="line" smooth="yes"/>
      <point x="120" y="194"/>
      <point x="111" y="203"/>
      <point x="111" y="214" type="curve" smooth="yes"/>
      <point x="111" y="225"/>
      <point x="120" y="234"/>
    </contour>
    <contour>
      <point x="314" y="221" type="curve" smooth="yes"/>
      <point x="487" y="18" type="line" smooth="yes"/>
      <point x="494" y="10"/>
      <point x="493" y="-3"/>
      <point x="485" y="-10" type="curve" smooth="yes"/>
      <point x="477" y="-17"/>
      <point x="464" y="-16"/>
      <point x="457" y="-8" type="curve" smooth="yes"/>
      <point x="284" y="195" type="line" smooth="yes"/>
      <point x="277" y="203"/>
      <point x="278" y="216"/>
      <point x="286" y="223" type="curve" smooth="yes"/>
      <point x="294" y="230"/>
      <point x="307" y="229"/>
    </contour>
    <contour>
      <point x="382" y="726" type="curve" smooth="yes"/>
      <point x="335" y="697"/>
      <point x="285" y="665"/>
      <point x="255" y="644" type="curve" smooth="yes"/>
      <point x="246" y="637"/>
      <point x="233" y="640"/>
      <point x="227" y="648" type="curve" smooth="yes"/>
      <point x="220" y="657"/>
      <point x="223" y="670"/>
      <point x="231" y="676" type="curve" smooth="yes"/>
      <point x="263" y="699"/>
      <point x="313" y="731"/>
      <point x="362" y="760" type="curve" smooth="yes"/>
      <point x="371" y="766"/>
      <point x="384" y="763"/>
      <point x="389" y="753" type="curve" smooth="yes"/>
      <point x="395" y="744"/>
      <point x="392" y="731"/>
    </contour>
  </outline>
</glyph>
<glyph name="rcaron" format="1">
  <advance width="351"/>
  <unicode hex="0159"/>
  <outline>
    <contour>
      <point x="81" y="9" type="curve" smooth="yes"/>
      <point x="81" y="368" type="line" smooth="yes"/>
      <point x="81" y="379"/>
      <point x="90" y="388"/>
      <point x="101" y="388" type="curve" smooth="yes"/>
      <point x="112" y="388"/>
      <point x="121" y="379"/>
      <point x="121" y="368" type="curve" smooth="yes"/>
      <point x="121" y="9" type="line" smooth="yes"/>
      <point x="121" y="-2"/>
      <point x="112" y="-11"/>
      <point x="101" y="-11" type="curve" smooth="yes"/>
      <point x="90" y="-11"/>
      <point x="81" y="-2"/>
    </contour>
    <contour>
      <point x="85" y="241" type="curve" smooth="yes"/>
      <point x="138" y="323"/>
      <point x="201" y="375"/>
      <point x="299" y="388" type="curve" smooth="yes"/>
      <point x="310" y="389"/>
      <point x="320" y="381"/>
      <point x="322" y="371" type="curve" smooth="yes"/>
      <point x="323" y="360"/>
      <point x="315" y="350"/>
      <point x="305" y="348" type="curve" smooth="yes"/>
      <point x="219" y="337"/>
      <point x="164" y="291"/>
      <point x="119" y="219" type="curve" smooth="yes"/>
      <point x="113" y="210"/>
      <point x="100" y="207"/>
      <point x="91" y="213" type="curve" smooth="yes"/>
      <point x="82" y="219"/>
      <point x="79" y="232"/>
    </contour>
    <contour>
      <point x="105" y="616" type="curve" smooth="yes"/>
      <point x="132" y="589"/>
      <point x="170" y="550"/>
      <point x="195" y="525" type="curve" smooth="yes"/>
      <point x="203" y="518"/>
      <point x="203" y="504"/>
      <point x="195" y="497" type="curve" smooth="yes"/>
      <point x="188" y="489"/>
      <point x="174" y="489"/>
      <point x="167" y="497" type="curve" smooth="yes"/>
      <point x="142" y="522"/>
      <point x="104" y="561"/>
      <point x="77" y="588" type="curve" smooth="yes"/>
      <point x="69" y="595"/>
      <point x="69" y="609"/>
      <point x="77" y="616" type="curve" smooth="yes"/>
      <point x="84" y="624"/>
      <point x="98" y="624"/>
    </contour>
    <contour>
      <point x="174" y="525" type="curve" smooth="yes"/>
      <point x="198" y="549"/>
      <point x="237" y="589"/>
      <point x="264" y="616" type="curve" smooth="yes"/>
      <point x="271" y="624"/>
      <point x="285" y="624"/>
      <point x="292" y="616" type="curve" smooth="yes"/>
      <point x="300" y="609"/>
      <point x="300" y="595"/>
      <point x="292" y="588" type="curve" smooth="yes"/>
      <point x="265" y="561"/>
      <point x="226" y="521"/>
      <point x="202" y="497" type="curve" smooth="yes"/>
      <point x="195" y="489"/>
      <point x="181" y="489"/>
      <point x="174" y="497" type="curve" smooth="yes"/>
      <point x="166" y="504"/>
      <point x="166" y="518"/>
    </contour>
  </outline>
</glyph>
<glyph name="Uring" format="1">
  <advance width="617"/>
  <unicode hex="016E"/>
  <outline>
    <contour>
      <point x="419" y="629" type="curve" smooth="yes"/>
      <point x="419" y="577"/>
      <point x="378" y="527"/>
      <point x="307" y="527" type="curve" smooth="yes"/>
      <point x="240" y="527"/>
      <point x="199" y="580"/>
      <point x="199" y="629" type="curve" smooth="yes"/>
      <point x="199" y="678"/>
      <point x="240" y="731"/>
      <point x="307" y="731" type="curve" smooth="yes"/>
      <point x="378" y="731"/>
      <point x="419" y="681"/>
    </contour>
    <contour>
      <point x="122" y="516" type="curve" smooth="yes"/>
      <point x="122" y="205" type="line" smooth="yes"/>
      <point x="122" y="85"/>
      <point x="198" y="17"/>
      <point x="306" y="17" type="curve" smooth="yes"/>
      <point x="427" y="17"/>
      <point x="495" y="85"/>
      <point x="495" y="208" type="curve" smooth="yes"/>
      <point x="495" y="516" type="line" smooth="yes"/>
      <point x="495" y="527"/>
      <point x="504" y="536"/>
      <point x="515" y="536" type="curve" smooth="yes"/>
      <point x="526" y="536"/>
      <point x="535" y="527"/>
      <point x="535" y="516" type="curve" smooth="yes"/>
      <point x="535" y="208" type="line" smooth="yes"/>
      <point x="535" y="59"/>
      <point x="453" y="-23"/>
      <point x="306" y="-23" type="curve" smooth="yes"/>
      <point x="174" y="-23"/>
      <point x="82" y="59"/>
      <point x="82" y="205" type="curve" smooth="yes"/>
      <point x="82" y="516" type="line" smooth="yes"/>
      <point x="82" y="527"/>
      <point x="91" y="536"/>
      <point x="102" y="536" type="curve" smooth="yes"/>
      <point x="113" y="536"/>
      <point x="122" y="527"/>
    </contour>
    <contour>
      <point x="379" y="629" type="curve" smooth="yes"/>
      <point x="379" y="663"/>
      <point x="350" y="691"/>
      <point x="307" y="691" type="curve" smooth="yes"/>
      <point x="266" y="691"/>
      <point x="239" y="660"/>
      <point x="239" y="629" type="curve" smooth="yes"/>
      <point x="239" y="598"/>
      <point x="266" y="567"/>
      <point x="307" y="567" type="curve" smooth="yes"/>
      <point x="350" y="567"/>
      <point x="379" y="595"/>
    </contour>
  </outline>
</glyph>
<glyph name="uogonek" format="1">
  <advance width="492"/>
  <unicode hex="0173"/>
  <outline>
    <contour>
      <point x="411" y="379" type="curve" smooth="yes"/>
      <point x="411" y="20" type="line" smooth="yes"/>
      <point x="411" y="9"/>
      <point x="402" y="0"/>
      <point x="391" y="0" type="curve" smooth="yes"/>
      <point x="380" y="0"/>
      <point x="371" y="9"/>
      <point x="371" y="20" type="curve" smooth="yes"/>
      <point x="371" y="379" type="line" smooth="yes"/>
      <point x="371" y="390"/>
      <point x="380" y="399"/>
      <point x="391" y="399" type="curve" smooth="yes"/>
      <point x="402" y="399"/>
      <point x="411" y="390"/>
    </contour>
    <contour>
      <point x="110" y="379" type="curve" smooth="yes"/>
      <point x="110" y="169" type="line" smooth="yes"/>
      <point x="110" y="78"/>
      <point x="149" y="40"/>
      <point x="208" y="40" type="curve" smooth="yes"/>
      <point x="269" y="40"/>
      <point x="331" y="88"/>
      <point x="371" y="144" type="curve" smooth="yes"/>
      <point x="377" y="152"/>
      <point x="390" y="155"/>
      <point x="399" y="148" type="curve" smooth="yes"/>
      <point x="407" y="142"/>
      <point x="410" y="129"/>
      <point x="403" y="120" type="curve" smooth="yes"/>
      <point x="355" y="54"/>
      <point x="279" y="0"/>
      <point x="208" y="0" type="curve" smooth="yes"/>
      <point x="131" y="0"/>
      <point x="70" y="40"/>
      <point x="70" y="169" type="curve" smooth="yes"/>
      <point x="70" y="379" type="line" smooth="yes"/>
      <point x="70" y="390"/>
      <point x="79" y="399"/>
      <point x="90" y="399" type="curve" smooth="yes"/>
      <point x="101" y="399"/>
      <point x="110" y="390"/>
    </contour>
    <contour>
      <point x="411" y="21" type="curve" smooth="yes"/>
      <point x="411" y="-16" type="line" smooth="yes"/>
      <point x="411" y="-21"/>
      <point x="408" y="-28"/>
      <point x="404" y="-32" type="curve" smooth="yes"/>
      <point x="324" y="-96"/>
      <point x="303" y="-122"/>
      <point x="303" y="-147" type="curve" smooth="yes"/>
      <point x="303" y="-178"/>
      <point x="351" y="-190"/>
      <point x="407" y="-190" type="curve" smooth="yes"/>
      <point x="418" y="-190"/>
      <point x="427" y="-199"/>
      <point x="427" y="-210" type="curve" smooth="yes"/>
      <point x="427" y="-221"/>
      <point x="418" y="-230"/>
      <point x="407" y="-230" type="curve" smooth="yes"/>
      <point x="299" y="-230"/>
      <point x="263" y="-190"/>
      <point x="263" y="-147" type="curve" smooth="yes"/>
      <point x="263" y="-116"/>
      <point x="278" y="-82"/>
      <point x="378" y="0" type="curve"/>
      <point x="371" y="-16" type="line"/>
      <point x="371" y="21" type="line" smooth="yes"/>
      <point x="371" y="32"/>
      <point x="380" y="41"/>
      <point x="391" y="41" type="curve" smooth="yes"/>
      <point x="402" y="41"/>
      <point x="411" y="32"/>
    </contour>
  </outline>
</glyph>
<glyph name="Zacute" format="1">
  <advance width="561"/>
  <unicode hex="0179"/>
  <outline>
    <contour>
      <point x="487" y="504" type="curve" smooth="yes"/>
      <point x="421" y="404"/>
      <point x="155" y="89"/>
      <point x="100" y="3" type="curve" smooth="yes"/>
      <point x="94" y="-6"/>
      <point x="81" y="-9"/>
      <point x="72" y="-3" type="curve" smooth="yes"/>
      <point x="63" y="3"/>
      <point x="60" y="16"/>
      <point x="66" y="25" type="curve" smooth="yes"/>
      <point x="121" y="111"/>
      <point x="387" y="426"/>
      <point x="453" y="526" type="curve" smooth="yes"/>
      <point x="459" y="535"/>
      <point x="472" y="538"/>
      <point x="481" y="532" type="curve" smooth="yes"/>
      <point x="490" y="526"/>
      <point x="493" y="513"/>
    </contour>
    <contour>
      <point x="92" y="535" type="curve" smooth="yes"/>
      <point x="459" y="535" type="line" smooth="yes"/>
      <point x="470" y="535"/>
      <point x="479" y="526"/>
      <point x="479" y="515" type="curve" smooth="yes"/>
      <point x="479" y="504"/>
      <point x="470" y="495"/>
      <point x="459" y="495" type="curve" smooth="yes"/>
      <point x="92" y="495" type="line" smooth="yes"/>
      <point x="81" y="495"/>
      <point x="72" y="504"/>
      <point x="72" y="515" type="curve" smooth="yes"/>
      <point x="72" y="526"/>
      <point x="81" y="535"/>
    </contour>
    <contour>
      <point x="78" y="25" type="curve" smooth="yes"/>
      <point x="483" y="25" type="line" smooth="yes"/>
      <point x="494" y="25"/>
      <point x="503" y="16"/>
      <point x="503" y="5" type="curve" smooth="yes"/>
      <point x="503" y="-6"/>
      <point x="494" y="-15"/>
      <point x="483" y="-15" type="curve" smooth="yes"/>
      <point x="78" y="-15" type="line" smooth="yes"/>
      <point x="67" y="-15"/>
      <point x="58" y="-6"/>
      <point x="58" y="5" type="curve" smooth="yes"/>
      <point x="58" y="16"/>
      <point x="67" y="25"/>
    </contour>
    <contour>
      <point x="428" y="726" type="curve" smooth="yes"/>
      <point x="380" y="697"/>
      <point x="330" y="665"/>
      <point x="300" y="644" type="curve" smooth="yes"/>
      <point x="291" y="637"/>
      <point x="278" y="640"/>
      <point x="272" y="648" type="curve" smooth="yes"/>
      <point x="265" y="657"/>
      <point x="268" y="670"/>
      <point x="276" y="676" type="curve" smooth="yes"/>
      <point x="308" y="699"/>
      <point x="358" y="731"/>
      <point x="408" y="760" type="curve" smooth="yes"/>
      <point x="417" y="766"/>
      <point x="430" y="762"/>
      <point x="435" y="753" type="curve" smooth="yes"/>
      <point x="441" y="744"/>
      <point x="437" y="731"/>
    </contour>
  </outline>
</glyph>
<glyph name="uni02C9" format="1">
  <advance width="422"/>
  <unicode hex="02C9"/>
  <outline>
    <contour>
      <point x="288" y="521" type="curve" smooth="yes"/>
      <point x="133" y="521" type="line" smooth="yes"/>
      <point x="122" y="521"/>
      <point x="113" y="530"/>
      <point x="113" y="541" type="curve" smooth="yes"/>
      <point x="113" y="552"/>
      <point x="122" y="561"/>
      <point x="133" y="561" type="curve" smooth="yes"/>
      <point x="288" y="561" type="line" smooth="yes"/>
      <point x="299" y="561"/>
      <point x="308" y="552"/>
      <point x="308" y="541" type="curve" smooth="yes"/>
      <point x="308" y="530"/>
      <point x="299" y="521"/>
    </contour>
  </outline>
</glyph>
<glyph name="ogonek" format="1">
  <advance width="485"/>
  <unicode hex="02DB"/>
  <outline>
    <contour>
      <point x="286" y="24" type="curve" smooth="yes"/>
      <point x="286" y="-12" type="line" smooth="yes"/>
      <point x="286" y="-17"/>
      <point x="283" y="-24"/>
      <point x="279" y="-27" type="curve" smooth="yes"/>
      <point x="199" y="-93"/>
      <point x="178" y="-118"/>
      <point x="178" y="-144" type="curve" smooth="yes"/>
      <point x="178" y="-174"/>
      <point x="226" y="-187"/>
      <point x="282" y="-187" type="curve" smooth="yes"/>
      <point x="293" y="-187"/>
      <point x="302" y="-196"/>
      <point x="302" y="-207" type="curve" smooth="yes"/>
      <point x="302" y="-218"/>
      <point x="293" y="-227"/>
      <point x="282" y="-227" type="curve" smooth="yes"/>
      <point x="174" y="-227"/>
      <point x="138" y="-186"/>
      <point x="138" y="-144" type="curve" smooth="yes"/>
      <point x="138" y="-112"/>
      <point x="153" y="-79"/>
      <point x="253" y="3" type="curve"/>
      <point x="246" y="-12" type="line"/>
      <point x="246" y="24" type="line" smooth="yes"/>
      <point x="246" y="35"/>
      <point x="255" y="44"/>
      <point x="266" y="44" type="curve" smooth="yes"/>
      <point x="277" y="44"/>
      <point x="286" y="35"/>
    </contour>
  </outline>
</glyph>
<glyph name="quoteright" format="1">
  <advance width="227"/>
  <unicode hex="2019"/>
  <outline>
    <contour>
      <point x="134" y="578" type="curve" smooth="yes"/>
      <point x="138" y="565"/>
      <point x="142" y="544"/>
      <point x="142" y="521" type="curve" smooth="yes"/>
      <point x="142" y="469"/>
      <point x="124" y="415"/>
      <point x="94" y="376" type="curve" smooth="yes"/>
      <point x="87" y="367"/>
      <point x="74" y="366"/>
      <point x="66" y="372" type="curve" smooth="yes"/>
      <point x="57" y="379"/>
      <point x="56" y="392"/>
      <point x="62" y="400" type="curve" smooth="yes"/>
      <point x="88" y="433"/>
      <point x="102" y="477"/>
      <point x="102" y="521" type="curve" smooth="yes"/>
      <point x="102" y="539"/>
      <point x="100" y="555"/>
      <point x="96" y="566" type="curve" smooth="yes"/>
      <point x="93" y="576"/>
      <point x="98" y="588"/>
      <point x="109" y="591" type="curve" smooth="yes"/>
      <point x="119" y="594"/>
      <point x="131" y="589"/>
    </contour>
  </outline>
</glyph>
<glyph name="quotesinglbase" format="1">
  <advance width="227"/>
  <unicode hex="201A"/>
  <outline>
    <contour>
      <point x="134" y="85" type="curve" smooth="yes"/>
      <point x="138" y="72"/>
      <point x="142" y="50"/>
      <point x="142" y="28" type="curve" smooth="yes"/>
      <point x="142" y="-24"/>
      <point x="124" y="-78"/>
      <point x="94" y="-117" type="curve" smooth="yes"/>
      <point x="87" y="-126"/>
      <point x="74" y="-127"/>
      <point x="66" y="-121" type="curve" smooth="yes"/>
      <point x="57" y="-114"/>
      <point x="56" y="-101"/>
      <point x="62" y="-93" type="curve" smooth="yes"/>
      <point x="88" y="-60"/>
      <point x="102" y="-16"/>
      <point x="102" y="28" type="curve" smooth="yes"/>
      <point x="102" y="46"/>
      <point x="100" y="62"/>
      <point x="96" y="73" type="curve" smooth="yes"/>
      <point x="93" y="83"/>
      <point x="98" y="95"/>
      <point x="109" y="98" type="curve" smooth="yes"/>
      <point x="119" y="101"/>
      <point x="131" y="96"/>
    </contour>
  </outline>
</glyph>
<glyph name="minus" format="1">
  <advance width="527"/>
  <unicode hex="2212"/>
  <outline>
    <contour>
      <point x="86" y="269" type="curve" smooth="yes"/>
      <point x="440" y="269" type="line" smooth="yes"/>
      <point x="451" y="269"/>
      <point x="460" y="260"/>
      <point x="460" y="249" type="curve" smooth="yes"/>
      <point x="460" y="238"/>
      <point x="451" y="229"/>
      <point x="440" y="229" type="curve" smooth="yes"/>
      <point x="86" y="229" type="line" smooth="yes"/>
      <point x="75" y="229"/>
      <point x="66" y="238"/>
      <point x="66" y="249" type="curve" smooth="yes"/>
      <point x="66" y="260"/>
      <point x="75" y="269"/>
    </contour>
  </outline>
</glyph>
<glyph name="notequal" format="1">
  <advance width="527"/>
  <unicode hex="2260"/>
  <outline>
    <contour>
      <point x="375" y="492" type="curve" smooth="yes"/>
      <point x="196" y="15" type="line" smooth="yes"/>
      <point x="192" y="5"/>
      <point x="180" y="-1"/>
      <point x="170" y="3" type="curve" smooth="yes"/>
      <point x="160" y="7"/>
      <point x="154" y="19"/>
      <point x="158" y="29" type="curve" smooth="yes"/>
      <point x="337" y="506" type="line" smooth="yes"/>
      <point x="341" y="516"/>
      <point x="353" y="522"/>
      <point x="363" y="518" type="curve" smooth="yes"/>
      <point x="373" y="514"/>
      <point x="379" y="502"/>
    </contour>
    <contour>
      <point x="86" y="382" type="curve" smooth="yes"/>
      <point x="440" y="382" type="line" smooth="yes"/>
      <point x="451" y="382"/>
      <point x="460" y="373"/>
      <point x="460" y="362" type="curve" smooth="yes"/>
      <point x="460" y="351"/>
      <point x="451" y="342"/>
      <point x="440" y="342" type="curve" smooth="yes"/>
      <point x="86" y="342" type="line" smooth="yes"/>
      <point x="75" y="342"/>
      <point x="66" y="351"/>
      <point x="66" y="362" type="curve" smooth="yes"/>
      <point x="66" y="373"/>
      <point x="75" y="382"/>
    </contour>
    <contour>
      <point x="86" y="174" type="curve" smooth="yes"/>
      <point x="440" y="174" type="line" smooth="yes"/>
      <point x="451" y="174"/>
      <point x="460" y="165"/>
      <point x="460" y="154" type="curve" smooth="yes"/>
      <point x="460" y="143"/>
      <point x="451" y="134"/>
      <point x="440" y="134" type="curve" smooth="yes"/>
      <point x="86" y="134" type="line" smooth="yes"/>
      <point x="75" y="134"/>
      <point x="66" y="143"/>
      <point x="66" y="154" type="curve" smooth="yes"/>
      <point x="66" y="165"/>
      <point x="75" y="174"/>
    </contour>
  </outline>
</glyph>
<glyph name="cedillacmb" format="1">
  <advance width="0"/>
  <outline>
    <contour>
      <point x="10" y="-136" type="curve" smooth="yes"/>
      <point x="-19" y="-162"/>
      <point x="-72" y="-215"/>
      <point x="-96" y="-240" type="curve" smooth="yes"/>
      <point x="-103" y="-248"/>
      <point x="-116" y="-248"/>
      <point x="-124" y="-240" type="curve" smooth="yes"/>
      <point x="-132" y="-233"/>
      <point x="-132" y="-220"/>
      <point x="-124" y="-212" type="curve" smooth="yes"/>
      <point x="-100" y="-187"/>
      <point x="-47" y="-134"/>
      <point x="-18" y="-106" type="curve" smooth="yes"/>
      <point x="-10" y="-99"/>
      <point x="3" y="-99"/>
      <point x="11" y="-107" type="curve" smooth="yes"/>
      <point x="18" y="-115"/>
      <point x="18" y="-128"/>
    </contour>
  </outline>
</glyph>
<glyph name="dotaccentcmb.cap" format="1">
  <advance width="0"/>
  <outline>
    <contour>
      <point x="-5" y="736" type="curve" smooth="yes"/>
      <point x="14" y="736"/>
      <point x="34" y="718"/>
      <point x="34" y="687" type="curve" smooth="yes"/>
      <point x="34" y="658"/>
      <point x="14" y="641"/>
      <point x="-5" y="641" type="curve" smooth="yes"/>
      <point x="-30" y="641"/>
      <point x="-47" y="660"/>
      <point x="-47" y="687" type="curve" smooth="yes"/>
      <point x="-47" y="716"/>
      <point x="-29" y="736"/>
    </contour>
  </outline>
</glyph>
<glyph name="dotaccentcmb" format="1">
  <advance width="0"/>
  <outline>
    <contour>
      <point x="-8" y="593" type="curve" smooth="yes"/>
      <point x="11" y="593"/>
      <point x="29" y="576"/>
      <point x="29" y="546" type="curve" smooth="yes"/>
      <point x="29" y="516"/>
      <point x="12" y="501"/>
      <point x="-8" y="501" type="curve" smooth="yes"/>
      <point x="-31" y="501"/>
      <point x="-48" y="518"/>
      <point x="-48" y="546" type="curve" smooth="yes"/>
      <point x="-48" y="574"/>
      <point x="-31" y="593"/>
    </contour>
  </outline>
</glyph>
<glyph name="gravecmb.cap" format="1">
  <advance width="0"/>
  <outline>
    <contour>
      <point x="-106" y="746" type="curve" smooth="yes"/>
      <point x="-68" y="724"/>
      <point x="-10" y="681"/>
      <point x="18" y="659" type="curve" smooth="yes"/>
      <point x="27" y="652"/>
      <point x="28" y="639"/>
      <point x="22" y="631" type="curve" smooth="yes"/>
      <point x="15" y="622"/>
      <point x="2" y="621"/>
      <point x="-6" y="627" type="curve" smooth="yes"/>
      <point x="-34" y="649"/>
      <point x="-88" y="690"/>
      <point x="-126" y="710" type="curve" smooth="yes"/>
      <point x="-135" y="716"/>
      <point x="-139" y="728"/>
      <point x="-134" y="738" type="curve" smooth="yes"/>
      <point x="-128" y="747"/>
      <point x="-116" y="751"/>
    </contour>
  </outline>
</glyph>
<glyph name="tildecmb" format="1">
  <advance width="0"/>
  <outline>
    <contour>
      <point x="-142" y="530" type="curve" smooth="yes"/>
      <point x="-117" y="567"/>
      <point x="-88" y="589"/>
      <point x="-63" y="589" type="curve" smooth="yes"/>
      <point x="-40" y="589"/>
      <point x="-24" y="579"/>
      <point x="4" y="557" type="curve" smooth="yes"/>
      <point x="20" y="545"/>
      <point x="32" y="535"/>
      <point x="46" y="535" type="curve" smooth="yes"/>
      <point x="63" y="535"/>
      <point x="74" y="554"/>
      <point x="89" y="576" type="curve" smooth="yes"/>
      <point x="95" y="585"/>
      <point x="108" y="588"/>
      <point x="117" y="582" type="curve" smooth="yes"/>
      <point x="126" y="576"/>
      <point x="129" y="563"/>
      <point x="123" y="554" type="curve" smooth="yes"/>
      <point x="96" y="514"/>
      <point x="73" y="495"/>
      <point x="46" y="495" type="curve" smooth="yes"/>
      <point x="24" y="495"/>
      <point x="6" y="505"/>
      <point x="-20" y="525" type="curve" smooth="yes"/>
      <point x="-38" y="539"/>
      <point x="-48" y="549"/>
      <point x="-63" y="549" type="curve" smooth="yes"/>
      <point x="-80" y="549"/>
      <point x="-95" y="529"/>
      <point x="-110" y="508" type="curve" smooth="yes"/>
      <point x="-116" y="499"/>
      <point x="-128" y="496"/>
      <point x="-137" y="503" type="curve" smooth="yes"/>
      <point x="-146" y="509"/>
      <point x="-149" y="521"/>
    </contour>
  </outline>
</glyph>
<glyph name="uni0145" format="1">
  <advance width="637"/>
  <outline>
    <contour>
      <point x="134" y="526" type="curve" smooth="yes"/>
      <point x="134" y="17" type="line" smooth="yes"/>
      <point x="134" y="6"/>
      <point x="125" y="-3"/>
      <point x="114" y="-3" type="curve" smooth="yes"/>
      <point x="103" y="-3"/>
      <point x="94" y="6"/>
      <point x="94" y="17" type="curve" smooth="yes"/>
      <point x="94" y="526" type="line" smooth="yes"/>
      <point x="94" y="537"/>
      <point x="103" y="546"/>
      <point x="114" y="546" type="curve" smooth="yes"/>
      <point x="125" y="546"/>
      <point x="134" y="537"/>
    </contour>
    <contour>
      <point x="543" y="526" type="curve" smooth="yes"/>
      <point x="543" y="17" type="line" smooth="yes"/>
      <point x="543" y="6"/>
      <point x="534" y="-3"/>
      <point x="523" y="-3" type="curve" smooth="yes"/>
      <point x="512" y="-3"/>
      <point x="503" y="6"/>
      <point x="503" y="17" type="curve" smooth="yes"/>
      <point x="503" y="526" type="line" smooth="yes"/>
      <point x="503" y="537"/>
      <point x="512" y="546"/>
      <point x="523" y="546" type="curve" smooth="yes"/>
      <point x="534" y="546"/>
      <point x="543" y="537"/>
    </contour>
    <contour>
      <point x="136" y="538" type="curve" smooth="yes"/>
      <point x="215" y="433"/>
      <point x="420" y="179"/>
      <point x="532" y="29" type="curve" smooth="yes"/>
      <point x="538" y="20"/>
      <point x="537" y="7"/>
      <point x="528" y="1" type="curve" smooth="yes"/>
      <point x="519" y="-5"/>
      <point x="506" y="-4"/>
      <point x="500" y="5" type="curve" smooth="yes"/>
      <point x="388" y="155"/>
      <point x="183" y="409"/>
      <point x="104" y="514" type="curve" smooth="yes"/>
      <point x="98" y="523"/>
      <point x="99" y="535"/>
      <point x="108" y="542" type="curve" smooth="yes"/>
      <point x="117" y="548"/>
      <point x="129" y="547"/>
    </contour>
    <contour>
      <point x="334" y="-96" type="curve" smooth="yes"/>
      <point x="341" y="-110"/>
      <point x="345" y="-128"/>
      <point x="345" y="-145" type="curve" smooth="yes"/>
      <point x="345" y="-191"/>
      <point x="312" y="-234"/>
      <point x="252" y="-261" type="curve" smooth="yes"/>
      <point x="243" y="-266"/>
      <point x="230" y="-261"/>
      <point x="226" y="-251" type="curve" smooth="yes"/>
      <point x="221" y="-242"/>
      <point x="226" y="-229"/>
      <point x="236" y="-225" type="curve" smooth="yes"/>
      <point x="276" y="-206"/>
      <point x="305" y="-179"/>
      <point x="305" y="-145" type="curve" smooth="yes"/>
      <point x="305" y="-134"/>
      <point x="303" y="-124"/>
      <point x="298" y="-116" type="curve" smooth="yes"/>
      <point x="293" y="-106"/>
      <point x="297" y="-94"/>
      <point x="306" y="-88" type="curve" smooth="yes"/>
      <point x="316" y="-83"/>
      <point x="328" y="-87"/>
    </contour>
  </outline>
</glyph>
<glyph name="uni0219" format="1">
  <advance width="449"/>
  <outline>
    <contour>
      <point x="336" y="348" type="curve" smooth="yes"/>
      <point x="306" y="355"/>
      <point x="268" y="363"/>
      <point x="226" y="363" type="curve" smooth="yes"/>
      <point x="151" y="363"/>
      <point x="112" y="332"/>
      <point x="112" y="295" type="curve" smooth="yes"/>
      <point x="112" y="262"/>
      <point x="148" y="239"/>
      <point x="220" y="232" type="curve" smooth="yes"/>
      <point x="262" y="227" type="line" smooth="yes"/>
      <point x="361" y="217"/>
      <point x="395" y="164"/>
      <point x="395" y="111" type="curve" smooth="yes"/>
      <point x="395" y="56"/>
      <point x="359" y="-4"/>
      <point x="233" y="-4" type="curve" smooth="yes"/>
      <point x="180" y="-4"/>
      <point x="127" y="7"/>
      <point x="78" y="28" type="curve" smooth="yes"/>
      <point x="68" y="32"/>
      <point x="63" y="44"/>
      <point x="68" y="54" type="curve" smooth="yes"/>
      <point x="72" y="64"/>
      <point x="84" y="69"/>
      <point x="94" y="64" type="curve" smooth="yes"/>
      <point x="137" y="45"/>
      <point x="186" y="36"/>
      <point x="233" y="36" type="curve" smooth="yes"/>
      <point x="315" y="36"/>
      <point x="355" y="70"/>
      <point x="355" y="111" type="curve" smooth="yes"/>
      <point x="355" y="150"/>
      <point x="323" y="181"/>
      <point x="258" y="187" type="curve" smooth="yes"/>
      <point x="216" y="192" type="line" smooth="yes"/>
      <point x="98" y="203"/>
      <point x="72" y="250"/>
      <point x="72" y="295" type="curve" smooth="yes"/>
      <point x="72" y="344"/>
      <point x="107" y="403"/>
      <point x="226" y="403" type="curve" smooth="yes"/>
      <point x="272" y="403"/>
      <point x="314" y="395"/>
      <point x="346" y="386" type="curve" smooth="yes"/>
      <point x="356" y="384"/>
      <point x="363" y="372"/>
      <point x="360" y="362" type="curve" smooth="yes"/>
      <point x="358" y="352"/>
      <point x="346" y="345"/>
    </contour>
    <contour>
      <point x="274" y="-147" type="curve" smooth="yes"/>
      <point x="246" y="-174"/>
      <point x="192" y="-228"/>
      <point x="168" y="-252" type="curve" smooth="yes"/>
      <point x="161" y="-260"/>
      <point x="147" y="-260"/>
      <point x="140" y="-252" type="curve" smooth="yes"/>
      <point x="132" y="-245"/>
      <point x="132" y="-231"/>
      <point x="140" y="-224" type="curve" smooth="yes"/>
      <point x="164" y="-200"/>
      <point x="218" y="-146"/>
      <point x="246" y="-119" type="curve" smooth="yes"/>
      <point x="254" y="-111"/>
      <point x="267" y="-111"/>
      <point x="274" y="-119" type="curve" smooth="yes"/>
      <point x="282" y="-127"/>
      <point x="282" y="-140"/>
    </contour>
  </outline>
</glyph>
<glyph name="uni2215" format="1">
  <advance width="447"/>
  <outline>
    <contour>
      <point x="392" y="510" type="curve" smooth="yes"/>
      <point x="94" y="1" type="line" smooth="yes"/>
      <point x="89" y="-8"/>
      <point x="76" y="-12"/>
      <point x="67" y="-6" type="curve" smooth="yes"/>
      <point x="58" y="-1"/>
      <point x="54" y="12"/>
      <point x="60" y="21" type="curve" smooth="yes"/>
      <point x="358" y="530" type="line" smooth="yes"/>
      <point x="363" y="539"/>
      <point x="376" y="543"/>
      <point x="385" y="537" type="curve" smooth="yes"/>
      <point x="394" y="532"/>
      <point x="398" y="519"/>
    </contour>
  </outline>
</glyph>
